<svg id="Layer_1" data-name="Layer 1" xmlns="http://www.w3.org/2000/svg" viewBox="0 0 134.1522 102.6801"><defs><style>.cls-1{fill:url(#Безымянный_градиент_3)}</style><linearGradient id="Безымянный_градиент_3" data-name="Безымянный градиент 3" x1="176.019" y1="82.724" x2="248.519" y2="10.224" gradientUnits="userSpaceOnUse"><stop offset="0" stop-color="#00a5c9"/><stop offset="1" stop-color="#00c194"/></linearGradient></defs><title>Developer_2</title><path class="cls-1" d="M278.298 42.767l-24.055-26.81a4.1 4.1 0 0 0-3.051-1.362h-77.845a4.092 4.092 0 0 0-3.051 1.363L146.24 42.781a4.097 4.097 0 0 0 .051 5.529l62.975 67.658a4.097 4.097 0 0 0 6 0l62.98-67.67a4.1 4.1 0 0 0 .051-5.53zM235.75 47.39l-23.532 56.214-24.84-56.214zm-50.183-4.099l-9.056-20.496h69.535l-8.58 20.496zm21.033 57.78L156.635 47.39h26.252zm33.598-53.681h27.56c.06 0 .11-.03.168-.034l-50.348 54.098zm27.553-4.099h-25.838l8.217-19.64zm-94.688-18.139l8.013 18.139h-24.28z" transform="translate(-145.193 -14.595)"/></svg>