<svg xmlns="http://www.w3.org/2000/svg" xmlns:xlink="http://www.w3.org/1999/xlink" viewBox="0 0 573.6929 504.0245"><defs><style>.cls-1{fill:url(#Безымянный_градиент_2)}.cls-2{fill:url(#Безымянный_градиент_2-2)}.cls-3{fill:url(#Безымянный_градиент_2-3)}.cls-4{fill:url(#Безымянный_градиент_2-4)}</style><linearGradient id="Безымянный_градиент_2" data-name="Безымянный градиент 2" x1="104.658" y1="243.41" x2="121.445" y2="243.41" gradientUnits="userSpaceOnUse"><stop offset="0" stop-color="#42a4c7"/><stop offset="1" stop-color="#02c196"/></linearGradient><linearGradient id="Безымянный_градиент_2-2" x1="159.177" y1="117.506" x2="226.325" y2="117.506" xlink:href="#Безымянный_градиент_2"/><linearGradient id="Безымянный_градиент_2-3" x1="-.298" y1="252.01" x2="385.8" y2="252.01" xlink:href="#Безымянный_градиент_2"/><linearGradient id="Безымянный_градиент_2-4" x1="272.46" y1="217.877" x2="573.394" y2="217.877" xlink:href="#Безымянный_градиент_2"/></defs><title>Advantages_5</title><circle class="cls-1" cx="113.051" cy="243.41" r="8.393"/><path class="cls-2" d="M226.623 117.508a33.574 33.574 0 1 0-33.574 33.574 33.574 33.574 0 0 0 33.574-33.574zm-50.36 0a16.787 16.787 0 1 1 16.786 16.787 16.787 16.787 0 0 1-16.787-16.787z"/><path class="cls-3" d="M377.705 302.164H344.13v-8.393a8.393 8.393 0 1 0-16.787 0v8.393h-24.836l-52.65-149.022a66.931 66.931 0 0 0-31.628-97.838V25.18a25.18 25.18 0 1 0-50.36 0v30.124a66.923 66.923 0 0 0-31.775 97.599L116.98 207.04a8.4 8.4 0 0 0 5.12 10.713 8.56 8.56 0 0 0 2.794.476 8.4 8.4 0 0 0 7.914-5.599l15.847-44.88a67.32 67.32 0 0 0 14.26 9.678L57.172 467.885l-6.406-22.746 46.352-131.306.008-.023 12.013-34.032a8.393 8.393 0 1 0-15.827-5.59l-9.876 27.976H58.754v-8.393a8.393 8.393 0 0 0-16.787 0v8.393H8.393a8.393 8.393 0 1 0 0 16.787h33.574v8.393a8.393 8.393 0 1 0 16.787 0v-8.393H77.51L34.053 442.057a8.378 8.378 0 0 0-.164 5.074l14.185 50.361a8.388 8.388 0 0 0 7.762 6.107c.107.008.213.008.32.008a8.388 8.388 0 0 0 7.881-5.524l65.214-179.132h23.378a25.138 25.138 0 0 0 23.634 16.787h33.573a25.139 25.139 0 0 0 23.634-16.787h23.258l65.33 179.549a8.398 8.398 0 0 0 7.885 5.525c.11 0 .22 0 .335-.009a8.377 8.377 0 0 0 7.754-6.147l14.075-50.779a8.438 8.438 0 0 0-.173-5.033L308.44 318.951h18.904v8.393a8.393 8.393 0 1 0 16.787 0v-8.393h33.574a8.393 8.393 0 0 0 0-16.787zM184.655 25.18a8.393 8.393 0 0 1 16.788 0v25.764a60.71 60.71 0 0 0-16.787 0zm-41.967 92.328a50.36 50.36 0 1 1 50.361 50.36 50.36 50.36 0 0 1-50.36-50.36zm67.148 201.443h-33.574a8.393 8.393 0 0 1 0-16.787h33.574a8.393 8.393 0 0 1 0 16.787zm23.633-16.787a25.139 25.139 0 0 0-23.633-16.787h-33.574a25.139 25.139 0 0 0-23.634 16.787h-17.265l43.354-119.086a65.965 65.965 0 0 0 28.581.022l43.322 119.064zm101.752 142.992l-6.356 22.95-58.483-160.73-.048-.133-47.22-129.78a67.293 67.293 0 0 0 14.159-9.557z"/><path class="cls-4" d="M573.187 139.897a8.535 8.535 0 0 0-10.916-5.144l-8.23 2.96A213.576 213.576 0 0 0 292.284 14.448l-2.96-8.23a8.534 8.534 0 0 0-16.06 5.777l3.033 8.432-.251.103 5.779 16.067.251-.104 2.741 7.62a8.534 8.534 0 1 0 16.06-5.777l-2.816-7.83A196.5 196.5 0 0 1 537.98 143.49l-7.829 2.816a8.535 8.535 0 0 0 5.778 16.063l7.829-2.816a196.5 196.5 0 0 1-112.982 239.92l-2.817-7.83a8.534 8.534 0 1 0-16.06 5.777l2.817 7.83c-.087.027-.174.051-.26.078l5.776 16.06c.086-.027.174-.051.26-.079l2.96 8.23a8.534 8.534 0 0 0 16.06-5.776l-2.96-8.23a213.576 213.576 0 0 0 123.265-261.757l8.23-2.96a8.535 8.535 0 0 0 5.139-10.919z"/></svg>