<svg xmlns="http://www.w3.org/2000/svg" viewBox="0 0 409.60199 395.94501"><linearGradient id="a" gradientUnits="userSpaceOnUse" x1="174.08" y1="187.732" x2="235.522" y2="126.291"><stop offset="0" stop-color="#5392a9"/><stop offset="1" stop-color="#17ab8a"/></linearGradient><path fill="url(#a)" d="M245.762 136.531H163.84v40.961h81.922v-40.961zm-13.657 27.309h-54.613v-13.655h54.613v13.655z"/><linearGradient id="b" gradientUnits="userSpaceOnUse" x1="70.267" y1="175.494" x2="79.921" y2="165.839"><stop offset="0" stop-color="#5392a9"/><stop offset="1" stop-color="#17ab8a"/></linearGradient><path fill="url(#b)" d="M75.094 177.492a6.827 6.827 0 0 0 0-13.652 6.827 6.827 0 1 0 0 13.652"/><linearGradient id="c" gradientUnits="userSpaceOnUse" x1="70.267" y1="277.893" x2="79.921" y2="268.238"><stop offset="0" stop-color="#5392a9"/><stop offset="1" stop-color="#17ab8a"/></linearGradient><path fill="url(#c)" d="M75.094 279.89a6.827 6.827 0 0 0 6.828-6.822 6.83 6.83 0 0 0-6.828-6.83 6.826 6.826 0 0 0 0 13.652"/><linearGradient id="d" gradientUnits="userSpaceOnUse" x1="329.679" y1="175.493" x2="339.333" y2="165.839"><stop offset="0" stop-color="#5392a9"/><stop offset="1" stop-color="#17ab8a"/></linearGradient><path fill="url(#d)" d="M334.508 177.492a6.824 6.824 0 0 0 6.824-6.828 6.824 6.824 0 0 0-6.824-6.824 6.824 6.824 0 0 0-6.828 6.824 6.824 6.824 0 0 0 6.828 6.828"/><linearGradient id="e" gradientUnits="userSpaceOnUse" x1="329.679" y1="277.892" x2="339.333" y2="268.239"><stop offset="0" stop-color="#5392a9"/><stop offset="1" stop-color="#17ab8a"/></linearGradient><path fill="url(#e)" d="M334.508 279.89a6.827 6.827 0 1 0-.005-13.65 6.827 6.827 0 0 0 .005 13.65"/><linearGradient id="f" gradientUnits="userSpaceOnUse" x1="34.612" y1="408.85" x2="374.987" y2="68.475"><stop offset="0" stop-color="#5392a9"/><stop offset="1" stop-color="#17ab8a"/></linearGradient><path fill="url(#f)" d="M361.812 75.094v-1.235c-.01-10.625-8.62-19.234-19.246-19.246h-16.12c-10.626.012-19.235 8.62-19.247 19.246v1.235h-6.824V54.613H286.72v-7.586c-.028-25.96-21.067-47-47.024-47.027h-69.789c-25.96.027-46.996 21.067-47.027 47.027v7.586h-13.652v20.48h-6.829V73.86c-.007-10.625-8.62-19.234-19.246-19.246H67.035c-10.625.012-19.238 8.62-19.25 19.246v1.235C21.395 75.094 0 96.488 0 122.879v13.652a6.827 6.827 0 1 0 13.652 0v-13.652c0-18.852 15.282-34.133 34.133-34.133v116.05H34.133v20.48h-20.48v-34.13a6.824 6.824 0 0 0-6.825-6.826A6.828 6.828 0 0 0 0 191.146v167.789c.023 20.428 16.582 36.987 37.012 37.01h335.574c20.434-.023 36.988-16.582 37.016-37.01V122.879c-.004-26.391-21.399-47.785-47.79-47.785m34.133 47.785v102.398h-20.48v-20.48h-13.653V88.746c18.852 0 34.133 15.28 34.133 34.133m-75.09 136.53h27.305v20.482c0 7.544-6.113 13.656-13.652 13.656-7.543 0-13.653-6.112-13.653-13.656V259.41zm34.133-13.651H307.2v-27.305h20.481v6.824a6.827 6.827 0 0 0 6.828 6.83 6.831 6.831 0 0 0 6.824-6.83v-6.824h20.48v27.305h-6.824zM326.445 68.266h16.121a5.6 5.6 0 0 1 5.594 5.593v130.938h-6.828v-6.824a6.827 6.827 0 1 0-13.652 0v6.824h-6.825V81.917l-.003-.06v-7.998a5.6 5.6 0 0 1 5.593-5.593m-39.726 6.828h-40.957v-6.828h40.957v6.828zm-40.957-20.481h-13.657v20.48h-54.613v-20.48H163.84V43.992a3.84 3.84 0 0 1 5.308-3.553 92.636 92.636 0 0 0 71.305 0 3.832 3.832 0 0 1 3.602.358 3.85 3.85 0 0 1 1.707 3.195v10.62zm-109.227-7.586c.02-18.424 14.95-33.355 33.371-33.375h69.79c18.421.02 33.351 14.95 33.37 33.375v7.586h-13.652V43.992a17.49 17.49 0 0 0-24.172-16.168 79.218 79.218 0 0 1-60.883 0 17.488 17.488 0 0 0-16.402 1.625 17.5 17.5 0 0 0-7.769 14.543v10.62h-13.653v-7.585zM122.88 68.266h40.961v6.828h-40.96v-6.828zm-13.652 20.48H307.2v116.05h-13.652v20.48H116.055v-20.48h-13.657V88.747h6.83zM61.441 259.41h27.305v20.48c0 7.545-6.113 13.657-13.652 13.657s-13.653-6.112-13.653-13.656V259.41zm5.59-191.144h16.121a5.6 5.6 0 0 1 5.594 5.593v130.938h-6.828v-6.824a6.826 6.826 0 1 0-13.652 0v6.824h-6.825V81.917l-.003-.06V73.86a5.6 5.6 0 0 1 5.593-5.593M47.785 218.453h20.481v6.824a6.827 6.827 0 0 0 11.656 4.83 6.827 6.827 0 0 0 1.996-4.83v-6.824h20.48v27.305H47.785v-27.305zM13.652 358.935V348.16h9.473c13.613.012 24.645 11.047 24.66 24.657v9.476H37.012c-12.895-.016-23.344-10.465-23.36-23.358m9.473-24.431h-9.473v-95.57h20.481v20.476H47.79v20.48c.016 15.075 12.231 27.295 27.305 27.309a27.3 27.3 0 0 0 9.384-1.664c10.45-3.833 17.91-13.867 17.924-25.644V259.41h13.653v-20.476h81.918v143.359H61.441v-9.473c-.027-21.152-17.164-38.293-38.316-38.316m372.82 24.43c-.01 12.894-10.465 23.343-23.359 23.359h-10.774v-9.473c.016-13.613 11.047-24.644 24.661-24.66h9.472v10.775zm-9.472-24.43c-21.149.023-38.289 17.164-38.313 38.313v9.476H211.63v-143.36h81.917v20.477H307.2v20.48c.016 15.075 12.235 27.295 27.31 27.309 15.073-.014 27.288-12.234 27.303-27.308V259.41h13.653v-20.476h20.48v95.57h-9.472z"/><linearGradient id="g" gradientUnits="userSpaceOnUse" x1="1.999" y1="168.666" x2="11.654" y2="159.011"><stop offset="0" stop-color="#5392a9"/><stop offset="1" stop-color="#17ab8a"/></linearGradient><path fill="url(#g)" d="M13.652 163.84a6.826 6.826 0 0 0-13.652 0 6.824 6.824 0 0 0 6.828 6.824 6.822 6.822 0 0 0 6.824-6.824"/></svg>