<svg xmlns="http://www.w3.org/2000/svg" viewBox="0 0 409.60199 409.569"><linearGradient id="a" gradientUnits="userSpaceOnUse" y1="204.784" x2="409.602" y2="204.784"><stop offset="0" stop-color="#5392a9"/><stop offset="1" stop-color="#17ab8a"/></linearGradient><path fill="url(#a)" d="M395.945 313.995h-13.652v-47.79c0-30.16-24.453-54.613-54.613-54.613h-41.371a94.4 94.4 0 0 0-16.997-47.785 101.16 101.16 0 0 0-18.023-19.387 105.364 105.364 0 0 0-22.734-13.656 111.231 111.231 0 0 0-16.93-5.597V87.143l1.844 1.024a47.808 47.808 0 0 0 25.465 7.375 49.363 49.363 0 0 0 10.375-1.094 47.794 47.794 0 0 0 36.46-37.664 47.792 47.792 0 0 0-20.027-48.446 47.785 47.785 0 0 0-52.41-.93 35.855 35.855 0 0 1-19.25 6.212h-19.523a35.857 35.857 0 0 1-19.254-6.211c-20.008-12.664-46.274-8.762-61.743 9.168-15.464 17.933-15.464 44.488 0 62.422 15.465 17.929 41.735 21.832 61.743 9.168l1.843-1.024v38.027c-2.867.614-5.668 1.293-8.464 2.184a6.823 6.823 0 0 0-4.504 9.149 6.825 6.825 0 0 0 8.465 4.16 92.83 92.83 0 0 1 24.847-4.16h12.356c3.96 0 7.644 0 11.468.679a84.83 84.83 0 0 1 21.914 6.145 88.78 88.78 0 0 1 19.458 11.742 84.59 84.59 0 0 1 15.425 16.59 81.379 81.379 0 0 1 14.543 39.933H259.41a66.592 66.592 0 0 0-20.48-41.504 70.837 70.837 0 0 0-49.766-19.933h-9.691c-35.578-.387-65.723 26.105-69.907 61.437H95.914a93.327 93.327 0 0 1 3.14-16.793 83.163 83.163 0 0 1 9.555-20.48 43.694 43.694 0 0 1 3.62-5.117 7.24 7.24 0 0 0-1.163-9.422 6.823 6.823 0 0 0-9.691 1.16 59.586 59.586 0 0 0-4.234 6.008 94.859 94.859 0 0 0-11.125 24.164 102.11 102.11 0 0 0-3.754 20.48h-.34c-27.508.024-50.7 20.5-54.137 47.786H6.828A6.827 6.827 0 0 0 0 266.206v27.304a6.827 6.827 0 0 0 6.828 6.828h20.477v13.653H13.652C6.112 313.995 0 320.108 0 327.647v13.652c0 7.543 6.113 13.657 13.652 13.657H40.96c0 30.16 24.449 54.613 54.613 54.613 30.16 0 54.614-24.453 54.614-54.613h109.226c0 30.16 24.449 54.613 54.613 54.613 30.164 0 54.614-24.453 54.614-54.613h27.304c7.543 0 13.657-6.114 13.657-13.657v-13.652c0-7.54-6.114-13.652-13.657-13.652M147.867 76.63a34.135 34.135 0 0 1-25.668 4.438A34.136 34.136 0 0 1 96.324 54.99a34.14 34.14 0 0 1 6.828-28.81c10.918-13.34 30.07-16.444 44.645-7.237a49.513 49.513 0 0 0 26.762 8.332h19.523a49.516 49.516 0 0 0 26.625-8.332c14.574-9.207 33.727-6.102 44.645 7.238a34.14 34.14 0 0 1 6.828 28.809 34.131 34.131 0 0 1-25.875 26.078 34.135 34.135 0 0 1-25.668-4.438 50.482 50.482 0 0 0-27.305-8.398h-18.5a50.5 50.5 0 0 0-26.965 8.398m29.625 46.215c-2.25 0-4.57 0-6.824.344v-40.96a28.579 28.579 0 0 1 4.164-.344h18.977a28.58 28.58 0 0 1 4.164.344v40.96l-8.125-.343h-12.356zm67.86 88.746h-54.207v-47.785a56.931 56.931 0 0 1 38.093 16.043 53.392 53.392 0 0 1 16.114 31.742m-67.86-47.785v47.785h-54.203c3.992-27.02 26.899-47.211 54.203-47.785M13.652 273.034h13.657v13.652H13.652v-13.652zm27.309 20.48v-27.308c0-22.621 18.336-40.957 40.96-40.957H327.68c22.62 0 40.96 18.336 40.96 40.957v47.789h-18.636c-20.527-18.215-51.43-18.215-71.953 0h-146.5c-20.528-18.215-51.43-18.215-71.953 0H40.96v-20.481zm-27.31 47.785v-13.652h34.68a55.858 55.858 0 0 0-5.597 13.652H13.652zm81.923 54.614a40.95 40.95 0 0 1-37.847-25.543 40.954 40.954 0 0 1 9.312-44.703c15.895-15.434 41.176-15.434 57.07 0a40.966 40.966 0 0 1 9.313 44.703 40.957 40.957 0 0 1-37.848 25.543m52.836-54.614a55.546 55.546 0 0 0-5.598-13.652h123.973a55.817 55.817 0 0 0-5.597 13.652H148.41zm165.617 54.614c-22.621 0-40.961-18.336-40.961-40.961 0-22.621 18.34-40.957 40.96-40.957a40.54 40.54 0 0 1 28.536 11.672 40.966 40.966 0 0 1 9.313 44.703 40.957 40.957 0 0 1-37.848 25.543m81.918-54.614h-29.082a55.582 55.582 0 0 0-5.597-13.652h34.679v13.652z"/><linearGradient id="b" gradientUnits="userSpaceOnUse" x1="119.609" y1="145.93" x2="132.967" y2="145.93"><stop offset="0" stop-color="#5392a9"/><stop offset="1" stop-color="#17ab8a"/></linearGradient><path fill="url(#b)" d="M125.406 152.678a6.821 6.821 0 0 0 4.848-1.09 7.91 7.91 0 0 0 2.66-4.164v-1.23c.04-.453.04-.91 0-1.363.07-.43.07-.868 0-1.297a6.406 6.406 0 0 0-4.848-4.3 7.64 7.64 0 0 0-2.796 0 7.507 7.507 0 0 0-5.532 5.8 6.941 6.941 0 0 0 0 2.664c.27.86.688 1.668 1.231 2.387a8.032 8.032 0 0 0 4.437 2.593"/><linearGradient id="c" gradientUnits="userSpaceOnUse" x1="307.199" y1="262.794" x2="348.16" y2="262.794"><stop offset="0" stop-color="#5392a9"/><stop offset="1" stop-color="#17ab8a"/></linearGradient><path fill="url(#c)" d="M320.855 286.686h13.653c7.54 0 13.652-6.113 13.652-13.652v-13.653c0-11.312-9.168-20.48-20.48-20.48h-6.825c-7.543 0-13.656 6.113-13.656 13.652v20.481c0 7.54 6.113 13.652 13.656 13.652m0-34.133h6.825a6.828 6.828 0 0 1 6.828 6.828v13.653h-13.656v-20.48h.003z"/><linearGradient id="d" gradientUnits="userSpaceOnUse" x1="218.453" y1="47.753" x2="259.414" y2="47.753"><stop offset="0" stop-color="#5392a9"/><stop offset="1" stop-color="#17ab8a"/></linearGradient><path fill="url(#d)" d="M238.934 68.233c11.308 0 20.48-9.168 20.48-20.48 0-11.309-9.172-20.48-20.48-20.48-11.31 0-20.481 9.171-20.481 20.48 0 11.312 9.168 20.48 20.48 20.48m0-27.305a6.827 6.827 0 0 1 6.829 6.825 6.83 6.83 0 0 1-6.828 6.828 6.83 6.83 0 0 1-6.83-6.828 6.828 6.828 0 0 1 6.83-6.825"/><linearGradient id="e" gradientUnits="userSpaceOnUse" x1="109.227" y1="47.753" x2="150.188" y2="47.753"><stop offset="0" stop-color="#5392a9"/><stop offset="1" stop-color="#17ab8a"/></linearGradient><path fill="url(#e)" d="M129.707 27.272c-11.312 0-20.48 9.172-20.48 20.481 0 11.312 9.168 20.48 20.48 20.48 11.309 0 20.48-9.168 20.48-20.48 0-11.309-9.167-20.48-20.48-20.48m0 27.308a6.83 6.83 0 0 1-6.828-6.828 6.827 6.827 0 0 1 6.828-6.825 6.823 6.823 0 0 1 6.824 6.825 6.826 6.826 0 0 1-6.824 6.828"/></svg>