<svg xmlns="http://www.w3.org/2000/svg" viewBox="0 0 505.93701 434.465"><linearGradient id="a" gradientUnits="userSpaceOnUse" x1="270.512" y1="344.83" x2="368.752" y2="246.589"><stop offset="0" stop-color="#5392a9"/><stop offset="1" stop-color="#17ab8a"/></linearGradient><path fill="url(#a)" d="M311.113 374.875h17.066c14.074 0 25.551-11.476 25.551-25.547v-68.172h8.484c6.688 0 12.774-3.792 15.473-9.878 2.891-6.289 1.695-13.676-2.996-18.668l-42.12-42.118c-3.196-3.793-7.986-5.988-12.978-5.988-4.785-.098-9.277 1.899-12.476 5.492l-43.012 43.114c-4.293 5.093-5.293 12.179-2.496 18.168 2.797 5.988 8.785 9.878 15.47 9.878h8.483v68.172c0 14.071 11.477 25.547 25.551 25.547zM276.675 264.59l42.621-42.617h.098c.2 0 .602.195.7 0l42.218 42.117H345.25a8.475 8.475 0 0 0-8.484 8.484v76.653a8.477 8.477 0 0 1-8.484 8.484h-17.07a8.476 8.476 0 0 1-8.48-8.484v-76.653a8.477 8.477 0 0 0-8.485-8.484l-17.57.5z"/><linearGradient id="b" gradientUnits="userSpaceOnUse" x1="28.369" y1="155.138" x2="48.906" y2="134.601"><stop offset="0" stop-color="#5392a9"/><stop offset="1" stop-color="#17ab8a"/></linearGradient><path fill="url(#b)" d="M38.636 161.887a8.475 8.475 0 0 0 8.485-8.484v-17.067a8.475 8.475 0 0 0-8.485-8.484 8.477 8.477 0 0 0-8.484 8.484v17.067a8.477 8.477 0 0 0 8.484 8.484z"/><linearGradient id="c" gradientUnits="userSpaceOnUse" x1="15.594" y1="244.567" x2="61.681" y2="198.48"><stop offset="0" stop-color="#5392a9"/><stop offset="1" stop-color="#17ab8a"/></linearGradient><path fill="url(#c)" d="M30.152 255.606a8.475 8.475 0 0 0 8.484 8.484 8.472 8.472 0 0 0 8.485-8.484v-68.164a8.472 8.472 0 0 0-8.485-8.485 8.475 8.475 0 0 0-8.484 8.485v68.164z"/><linearGradient id="d" gradientUnits="userSpaceOnUse" x1="41.306" y1="469.993" x2="463.6" y2="47.699"><stop offset="0" stop-color="#5392a9"/><stop offset="1" stop-color="#17ab8a"/></linearGradient><path fill="url(#d)" d="M504.14 111.485c.5-2.496-.199-5.09-1.898-7.086l-.996-1.297-.2-.301-75.953-93.422c-4.789-5.887-12.078-9.38-19.664-9.38H97.726C90.04 0 82.851 3.493 77.964 9.38L2.007 102.9l-.199.203-.996 1.297.195.199c-.195.297-.297.699-.496 1H.414v.398c-.602 1.696-.5 3.493 0 5.188V307.11c0 5.089 3.79 9.179 8.484 9.179 4.687 0 8.48-4.09 8.48-9.18V111.786a8.092 8.092 0 0 1 4.09-1.101h136.24v55.695c0 5.688 2.795 10.98 7.483 14.074 4.691 3.192 10.582 3.789 15.875 1.696l27.742-11.078 36.231 14.472a17.182 17.182 0 0 0 6.29 1.196c2.194 0 4.292-.4 6.288-1.196l36.23-14.472 27.742 11.078c5.293 2.093 11.184 1.496 15.875-1.696 4.688-3.195 7.485-8.484 7.485-14.074v-55.695h136.238c2.094 0 4.191.8 5.688 2.297l1.996 304.515H17.777v-42.621a8.476 8.476 0 0 0-8.485-8.483 8.475 8.475 0 0 0-8.48 8.483v51.106a8.476 8.476 0 0 0 8.48 8.484h488.165c2.29 0 4.386-.902 5.988-2.495 1.594-1.6 2.492-3.793 2.492-5.99l-1.797-314.495zM285.761 17.168l37.43 76.653H179.964l37.43-76.653h68.367zM161.003 93.62H31.55l59.586-73.26c1.598-1.996 3.992-3.192 6.59-3.192H198.43L161.003 93.62zm167.176 72.758l-27.746-11.082a17.399 17.399 0 0 0-12.676 0l-36.23 14.473-36.23-14.473a17.396 17.396 0 0 0-12.676 0l-27.746 11.082v-55.594H328.18v55.594zM342.05 93.62l-37.324-76.453H405.43c2.496 0 4.895 1.196 6.488 3.094l59.586 73.359H342.05z"/><linearGradient id="e" gradientUnits="userSpaceOnUse" x1="134.275" y1="344.83" x2="232.516" y2="246.59"><stop offset="0" stop-color="#5392a9"/><stop offset="1" stop-color="#17ab8a"/></linearGradient><path fill="url(#e)" d="M174.875 374.875h17.066c14.074 0 25.555-11.476 25.555-25.547v-68.172h8.48c6.688 0 12.773-3.792 15.473-9.878 2.89-6.289 1.695-13.676-2.996-18.668l-42.12-42.118c-3.193-3.793-7.986-5.988-12.974-5.988-4.789-.098-9.28 1.899-12.477 5.492l-43.015 43.114c-4.293 5.093-5.289 12.179-2.496 18.168 2.796 5.988 8.785 9.878 15.468 9.878h8.485v68.172c0 14.071 11.48 25.547 25.551 25.547zM140.343 264.59l42.617-42.617h.102c.2 0 .594.195.695 0l42.22 42.117H208.91a8.477 8.477 0 0 0-8.485 8.484v76.653a8.477 8.477 0 0 1-8.484 8.484h-17.066a8.477 8.477 0 0 1-8.485-8.484v-76.653a8.475 8.475 0 0 0-8.484-8.484l-17.563.5z"/></svg>