<svg xmlns="http://www.w3.org/2000/svg" viewBox="0 0 443.806 513.99902"><linearGradient id="a" gradientUnits="userSpaceOnUse" x1="142.802" y1="402.374" x2="154.958" y2="390.219"><stop offset="0" stop-color="#5392a9"/><stop offset="1" stop-color="#17ab8a"/></linearGradient><circle fill="url(#a)" cx="148.88" cy="396.297" r="8.595"/><linearGradient id="b" gradientUnits="userSpaceOnUse" x1="142.802" y1="281.661" x2="154.958" y2="269.505"><stop offset="0" stop-color="#5392a9"/><stop offset="1" stop-color="#17ab8a"/></linearGradient><circle fill="url(#b)" cx="148.88" cy="275.583" r="8.595"/><linearGradient id="c" gradientUnits="userSpaceOnUse" x1="-34.814" y1="409.896" x2="388.794" y2="-13.713"><stop offset="0" stop-color="#5392a9"/><stop offset="1" stop-color="#17ab8a"/></linearGradient><path fill="url(#c)" d="M436.004 33.943a15.045 15.045 0 0 0-14.267-1.238l-41.939 18.133L184.334 6.2a122.312 122.312 0 0 0-16.742-3.783l-.172-.024A123.962 123.962 0 0 0 148.877 1C80.838 1 25.484 56.354 25.484 124.393c0 68.038 55.354 123.39 123.393 123.39 15.16 0 29.686-2.753 43.115-7.777v152.05c0 23.774-19.34 43.116-43.115 43.116-23.776 0-43.117-19.341-43.117-43.115V266.98a8.596 8.596 0 1 0-17.19 0v125.073c0 30.334 22.517 55.498 51.711 59.683v28.6c0 8.53-6.94 15.472-15.472 15.472H81.797c-8.532 0-15.472-6.941-15.472-15.472V361.72c0-18.01-14.652-32.662-32.662-32.662C15.653 329.058 1 343.71 1 361.72v62.46a8.596 8.596 0 1 0 17.191 0v-62.46c0-8.531 6.941-15.472 15.472-15.472s15.471 6.94 15.471 15.472v118.617c0 18.01 14.653 32.662 32.663 32.662h43.012c18.01 0 32.662-14.652 32.662-32.662v-28.6c29.195-4.185 51.711-29.35 51.711-59.683V232.008c37.616-21.163 63.086-61.468 63.086-107.615 0-35.044-14.685-66.723-38.224-89.206l137.992 31.51v104.137l-108.734 30.72a8.593 8.593 0 0 0-5.933 10.607 8.597 8.597 0 0 0 8.265 6.26c.775 0 1.561-.103 2.342-.325l112.05-31.656 41.714 18.035a15.046 15.046 0 0 0 14.267-1.24 15.04 15.04 0 0 0 6.798-12.603V46.547a15.051 15.051 0 0 0-6.8-12.604zm-180.928 90.45c0 58.559-47.64 106.2-106.2 106.2s-106.202-47.641-106.202-106.2c0-58.561 47.642-106.201 106.203-106.201a106.7 106.7 0 0 1 16.047 1.21l15.04 3.434c43.438 13.324 75.112 53.809 75.112 101.557zm170.535 63.029l-36.387-15.732V65.49l36.387-15.732v137.664z"/><linearGradient id="d" gradientUnits="userSpaceOnUse" x1="111.966" y1="161.303" x2="185.787" y2="87.481"><stop offset="0" stop-color="#5392a9"/><stop offset="1" stop-color="#17ab8a"/></linearGradient><path fill="url(#d)" d="M148.877 72.168c-28.797 0-52.225 23.428-52.225 52.225s23.428 52.223 52.225 52.223c28.796 0 52.224-23.426 52.224-52.223s-23.428-52.225-52.224-52.225zm0 87.257c-19.318 0-35.034-15.716-35.034-35.034 0-19.318 15.716-35.033 35.034-35.033 19.317 0 35.033 15.715 35.033 35.033s-15.716 35.034-35.033 35.034z"/><linearGradient id="e" gradientUnits="userSpaceOnUse" x1="63.151" y1="105.157" x2="75.307" y2="93.002"><stop offset="0" stop-color="#5392a9"/><stop offset="1" stop-color="#17ab8a"/></linearGradient><circle fill="url(#e)" cx="69.229" cy="99.08" r="8.595"/><linearGradient id="f" gradientUnits="userSpaceOnUse" x1="57.994" y1="136.96" x2="70.15" y2="124.804"><stop offset="0" stop-color="#5392a9"/><stop offset="1" stop-color="#17ab8a"/></linearGradient><circle fill="url(#f)" cx="64.072" cy="130.882" r="8.595"/><linearGradient id="g" gradientUnits="userSpaceOnUse" x1="68.263" y1="165.508" x2="80.419" y2="153.353"><stop offset="0" stop-color="#5392a9"/><stop offset="1" stop-color="#17ab8a"/></linearGradient><circle fill="url(#g)" cx="74.341" cy="159.43" r="8.595"/></svg>