<svg xmlns="http://www.w3.org/2000/svg" viewBox="0 0 460.578 512"><linearGradient id="a" gradientUnits="userSpaceOnUse" x1="16.677" y1="145.094" x2="28.823" y2="132.947"><stop offset="0" stop-color="#5392a9"/><stop offset="1" stop-color="#17ab8a"/></linearGradient><path fill="url(#a)" d="M24.063 147.438a8.923 8.923 0 0 0 5.614-3.36 8.608 8.608 0 0 0 1.359-3.047 8.28 8.28 0 0 0-.918-6.457 8.267 8.267 0 0 0-5.312-3.785 8.584 8.584 0 0 0-3.313-.187 8.536 8.536 0 0 0-7.078 6.401 8.536 8.536 0 0 0 3.28 8.957l1.427.856c.516.254 1.063.43 1.629.527.52.177 1.059.27 1.605.274.575-.02 1.145-.078 1.707-.179"/><linearGradient id="b" gradientUnits="userSpaceOnUse" x1="32.909" y1="433.406" x2="376.865" y2="89.451"><stop offset="0" stop-color="#5392a9"/><stop offset="1" stop-color="#17ab8a"/></linearGradient><path fill="url(#b)" d="M.457 49.051l8.75 57.488a8.528 8.528 0 0 0 13.828 5.511 8.52 8.52 0 0 0 3.04-8.07l-8.739-57.42a26.037 26.037 0 0 1 5.891-20.626 24.936 24.936 0 0 1 18.996-8.868H51.2v17.067h-8.976a8.537 8.537 0 0 0-8.434 9.812l24.15 158.723c2.94 20.757 20.717 36.187 41.686 36.171h31.145c20.964.02 38.742-15.405 41.68-36.164l24.155-158.718a8.532 8.532 0 0 0-8.429-9.824H179.2V17.066h8.977a24.972 24.972 0 0 1 19.004 8.86 25.886 25.886 0 0 1 5.894 20.476L188.918 205.2c-4.082 29.004-28.859 50.594-58.148 50.672H99.625a59.71 59.71 0 0 1-9.754-.85 8.626 8.626 0 0 0-3.164-.643c-23.789-5.472-41.762-25.015-45.227-49.179l-5.12-33.746a8.531 8.531 0 0 0-9.692-6.996 8.53 8.53 0 0 0-7.18 9.554l5.121 33.75c4.082 28.157 23.524 51.688 50.407 61.012-22.11 54.527-47.71 144.72-5.59 199.945C91.398 497.434 127.556 512 176.896 512a328.124 328.124 0 0 0 55.245-5.325 199.105 199.105 0 0 0 20.093-4.265 369.515 369.515 0 0 0 78.09 9.59c49.332 0 85.496-14.566 107.52-43.289 45.14-59.109 13.312-157.465-11.852-214.75 27.82-24.477 34.16-65.344 15.063-97.098-19.102-31.754-58.172-45.309-92.832-32.199-34.66 13.106-54.989 49.121-48.3 85.566 6.69 36.445 38.487 62.895 75.542 62.836 1.031 0 2.04-.109 3.062-.152 26.18 58.648 44.211 131.14 18.571 164.793-15.653 20.523-48.547 24.398-78.875 22.777a161.506 161.506 0 0 0 37.035-45.406c25.601-47.922 23.601-96.172-5.12-122.93a79.476 79.476 0 0 0-60.544-19.39 80.553 80.553 0 0 0-35.949 11.878 80.529 80.529 0 0 0-35.91-11.879 79.375 79.375 0 0 0-60.587 19.407c-28.75 26.761-30.824 74.836-5.402 122.274a161.735 161.735 0 0 0 37.352 46.082c-29.657 1.585-63.063-2.059-78.918-22.786-25.524-33.28-7.465-105.957 18.644-164.754h2.016c37.73-.03 69.7-27.8 75.008-65.16l24.097-158.914a42.975 42.975 0 0 0-9.789-34.05A42.003 42.003 0 0 0 188.176 0h-34.578c-14.137 0-25.602 11.461-25.602 25.602 0 14.136 11.465 25.597 25.602 25.597h24.644L155.57 200.105c-1.71 12.395-12.289 21.633-24.8 21.661H99.625c-12.512-.032-23.094-9.274-24.809-21.669L52.152 51.2h24.645c14.141 0 25.601-11.46 25.601-25.597 0-14.14-11.46-25.602-25.6-25.602H42.222a42.002 42.002 0 0 0-31.985 14.848A43.183 43.183 0 0 0 .45 48.98l.008.071zM315.73 196.266c0-32.989 26.747-59.73 59.735-59.73s59.734 26.741 59.734 59.73c0 32.991-26.746 59.734-59.734 59.734-32.973-.039-59.695-26.758-59.735-59.734m94.934 251.784c35.637-46.746 2.32-138.582-14.652-177.859a75.905 75.905 0 0 0 15.726-6.266c20.106 46.79 52.637 141.911 12.504 194.418-24.996 32.657-73.66 43.52-144.027 32.024a195.37 195.37 0 0 0 17.578-12.96l1.852-1.462a273.662 273.662 0 0 0 30.882 1.98c38.11 0 65-10 80.137-29.875m-314.102 0c18.27 23.895 53.58 33.375 105.094 28.461.301.071.606.125.914.16.575 0 1.145-.058 1.707-.17l1.828-.333h.153c1.637-.16 3.344-.34 4.972-.579h.071c3.508-.46 34.586-4.71 46.66-11.828.051 0 .078-.093.13-.12.05-.024.16-.059.237-.11 32.777-21.64 57.078-45.09 66.56-64.102 18.05-33.504 18.831-66.613 1.98-82.375l-.052-.05a47.006 47.006 0 0 0-34.66-10.336 47.003 47.003 0 0 0-31.738 17.352 9.46 9.46 0 0 1-6.84 2.878 9.48 9.48 0 0 1-6.812-2.937 45.243 45.243 0 0 0-32.352-17.352c-1.484-.102-2.969-.195-4.344-.195a43.956 43.956 0 0 0-29.71 10.64c-16.856 15.755-16.165 48.641 1.601 81.735 8.406 16.672 27.418 36.265 53.07 55.054-7.304 1.785-15.64 3.305-22.324 4.27a165.206 165.206 0 0 1-45.883-51.535c-21.758-40.594-21.015-80.605 1.871-101.894 22.801-19.114 55.672-20.298 79.785-2.868a8.54 8.54 0 0 0 10.24 0c24.108-17.414 56.96-16.246 79.768 2.84 22.907 21.336 23.571 61.492 1.614 102.555a171.892 171.892 0 0 1-48.34 53.195l-4.617 3.66a138.581 138.581 0 0 1-20.907 14.723 118.61 118.61 0 0 1-36.914 11.093A311.848 311.848 0 0 1 176.902 495c-43.742 0-75.34-12.312-93.867-36.582-38.859-50.918-8.754-142.668 8.961-185.82 2.56.245 5.121.41 7.68.41h10.531C93.012 313.42 61.77 402.663 96.562 448.058v-.009zm157.012-1.945c-27.512-18.832-48.41-39.176-56.48-55.21-13.492-25.099-15.688-51.489-5.12-61.349a27.153 27.153 0 0 1 18.096-6.082c1.008 0 2.094.08 2.946.138a28.222 28.222 0 0 1 20.054 10.52 26.088 26.088 0 0 0 20.465 9.96 26.087 26.087 0 0 0 20.492-9.898 28.228 28.228 0 0 1 20.04-10.582 28.83 28.83 0 0 1 21.093 5.972c9.215 8.66 10.317 32.64-5.496 62.028-7.687 15.487-28.484 35.651-56.055 54.511l-.035-.008zM153.598 17.066h8.535v17.067h-8.535a8.533 8.533 0 0 1-8.532-8.53c0-4.716 3.821-8.537 8.532-8.537m-77.653 0h.852a8.534 8.534 0 1 1 0 17.067h-8.53V17.066h7.678z"/><linearGradient id="c" gradientUnits="userSpaceOnUse" x1="345.288" y1="226.43" x2="405.627" y2="166.09"><stop offset="0" stop-color="#5392a9"/><stop offset="1" stop-color="#17ab8a"/></linearGradient><path fill="url(#c)" d="M418.133 196.266c0-23.563-19.106-42.664-42.668-42.664-23.563 0-42.668 19.101-42.668 42.664 0 23.565 19.105 42.668 42.668 42.668 23.551-.028 42.637-19.114 42.668-42.668m-68.27 0c0-14.138 11.465-25.599 25.602-25.599s25.601 11.461 25.601 25.6c0 14.14-11.464 25.6-25.6 25.6s-25.603-11.46-25.603-25.6"/></svg>