<svg xmlns="http://www.w3.org/2000/svg" width="180.15" height="290.72" viewBox="66 -288.47 180.15 290.72"><linearGradient id="a" gradientUnits="userSpaceOnUse" x1="156.577" y1="414.126" x2="156.577" y2="704.841" gradientTransform="matrix(1 0 0 -1 -.5 416.376)"><stop offset="0" stop-color="#5392a9"/><stop offset="1" stop-color="#17ab8a"/></linearGradient><path fill="url(#a)" d="M242.22-193.32c-2.17-.66-4.5.05-5.93 1.81l-2.33 2.79v-65.43c0-3.09-2.5-5.57-5.57-5.57h-80.4c-2.5-16.51-16.69-28.73-33.38-28.75h-.05c-18.63.05-33.68 15.16-33.68 33.79l.1 69.21-5.06-6.08a5.684 5.684 0 0 0-4.34-2.02c-3.09.03-5.6 2.56-5.57 5.65v184.6c0 3.09 2.5 5.57 5.57 5.57h169.01c3.09 0 5.57-2.5 5.57-5.57v-184.65a5.538 5.538 0 0 0-3.94-5.35zm-93.54 21.45c-.13-1.23-.2-2.45-.2-3.68v-.28c.05-20.52 16.71-37.11 37.24-37.08 20.52.03 37.11 16.71 37.08 37.24v.38l-10.27 12.34-23.85-28.6c-1.97-2.38-5.49-2.68-7.87-.72-.26.2-.49.46-.72.72l-23.92 28.65-7.49-8.97zm74.11-34.66c-17-20.52-47.41-23.38-67.93-6.36a50.411 50.411 0 0 0-6.41 6.41l-.08-42.12h74.42v42.07zM92.04-254.7c0-12.47 10.07-22.57 22.54-22.62h.03c9.43 0 17.86 5.88 21.16 14.7l-24.36 24.43c-1.69 1.58-1.74 4.24-.15 5.93 1.58 1.69 4.24 1.74 5.93.15l.15-.15 19.86-19.93.03 20.24-25.76 25.86a4.189 4.189 0 0 0 0 5.93 4.189 4.189 0 0 0 5.93 0l19.86-19.93.05 34.58-5.03-6.03c-1.97-2.38-5.49-2.68-7.85-.72-.26.2-.51.46-.72.72l-23.9 28.65-7.64-9.18-.13-82.63zM235.01-8.92H77.17v-163.75l18.38 22.03c1.97 2.38 5.49 2.68 7.87.72.26-.2.49-.46.72-.72l23.9-28.65L139-166.13c.03.05.08.08.1.13l12.83 15.39c1.97 2.38 5.49 2.68 7.85.72.26-.2.49-.46.72-.72l23.9-28.65 23.87 28.62a5.552 5.552 0 0 0 4.29 2.02c1.66 0 3.22-.74 4.29-2.02l15.87-19.07.03-.05 2.33-2.79-.07 163.63z"/></svg>