<svg xmlns="http://www.w3.org/2000/svg" xmlns:xlink="http://www.w3.org/1999/xlink" viewBox="0 0 512.0001 565.2335"><defs><style>.cls-1,.cls-2,.cls-3,.cls-4{fill-rule:evenodd}.cls-1{fill:url(#Безымянный_градиент_2)}.cls-2{fill:url(#Безымянный_градиент_2-2)}.cls-3{fill:url(#Безымянный_градиент_2-3)}.cls-4{fill:url(#Безымянный_градиент_2-4)}</style><linearGradient id="Безымянный_градиент_2" data-name="Безымянный градиент 2" x1="201.63" y1="409.748" x2="512.415" y2="409.748" gradientUnits="userSpaceOnUse"><stop offset="0" stop-color="#42a4c7"/><stop offset="1" stop-color="#02c196"/></linearGradient><linearGradient id="Безымянный_градиент_2-2" x1="171.743" y1="384.925" x2="191.743" y2="384.925" xlink:href="#Безымянный_градиент_2"/><linearGradient id="Безымянный_градиент_2-3" x1="208.315" y1="120.807" x2="304.515" y2="120.807" xlink:href="#Безымянный_градиент_2"/><linearGradient id="Безымянный_градиент_2-4" x1=".415" y1="186.391" x2="377.315" y2="186.391" xlink:href="#Безымянный_градиент_2"/></defs><title>Advantages_4</title><path class="cls-1" d="M507.891 301.156l-61.411-44.79a10.003 10.003 0 0 0-5.89-1.917h-15.625a9.999 9.999 0 0 0-10 10v7.492h-48.68a116.814 116.814 0 0 0-3.508-9.09 9.999 9.999 0 0 0-18.34 7.973 95.902 95.902 0 0 1 4.754 13.676 10 10 0 0 0 9.668 7.44h66.106a10.002 10.002 0 0 0 10-10v-7.491h2.363l47.699 34.785-47.695 34.785h-2.367v-7.492a10 10 0 0 0-10-10h-66.106a10.002 10.002 0 0 0-9.668 7.44 96.492 96.492 0 0 1-68.457 68.462 9.998 9.998 0 0 0-7.441 9.664v66.106a10 10 0 0 0 10 10h7.492v2.366L256 538.265l-34.785-47.7V488.2h7.492a10 10 0 0 0 10-10v-66.106a9.998 9.998 0 0 0-7.441-9.664 96.605 96.605 0 0 1-12.793-4.38 10 10 0 1 0-7.793 18.419 116.38 116.38 0 0 0 8.027 3.05v48.68h-7.492a9.998 9.998 0 0 0-10 10v15.625a10.004 10.004 0 0 0 1.918 5.89l44.79 61.411a9.995 9.995 0 0 0 16.155 0l44.785-61.41a9.98 9.98 0 0 0 1.922-5.89V478.2a9.999 9.999 0 0 0-10-10h-7.492v-48.676a116.613 116.613 0 0 0 72.996-72.996h48.676v7.492a9.998 9.998 0 0 0 10 10h15.625a9.985 9.985 0 0 0 5.894-1.922l61.41-44.785a9.998 9.998 0 0 0-.003-16.156z"/><path class="cls-2" d="M181.328 375.019a10 10 0 1 0 10 10 10.019 10.019 0 0 0-10-10z"/><path class="cls-3" d="M304.1 120.9A48.1 48.1 0 1 0 256 169a48.155 48.155 0 0 0 48.1-48.1zm-72.8 0a24.7 24.7 0 1 1 24.7 24.7 24.728 24.728 0 0 1-24.7-24.7z"/><path class="cls-4" d="M256 372.968a63.688 63.688 0 0 0 44.239-109.55l52.534-70.035a120.9 120.9 0 1 0-193.546 0l20.75 27.718a116.484 116.484 0 0 0-34.266 50.84H97.035v-7.492a9.998 9.998 0 0 0-10-10H71.41a10.024 10.024 0 0 0-5.894 1.919L4.109 301.156a9.998 9.998 0 0 0 0 16.16L65.52 362.1a10.002 10.002 0 0 0 5.89 1.918h15.625a9.998 9.998 0 0 0 10-10v-7.492h48.68a115.62 115.62 0 0 0 3.734 9.609 10 10 0 1 0 18.3-8.066 95.718 95.718 0 0 1-4.94-14.102 10.002 10.002 0 0 0-9.668-7.441H87.035a10 10 0 0 0-10 10v7.492h-2.363l-47.7-34.786 47.696-34.784h2.367v7.491a10 10 0 0 0 10 10h66.106a10.002 10.002 0 0 0 9.668-7.44 96.337 96.337 0 0 1 29.182-47.348l-7.746-10.348 27.452 36.674A63.69 63.69 0 0 0 256 372.968zm-78.052-193.629a97.5 97.5 0 1 1 156.103 0L256 283.4l-78.052-104.06zm78.042 143.309l31.2-41.833.923-1.23a43.733 43.733 0 1 1-64.3.078z"/></svg>