<svg xmlns="http://www.w3.org/2000/svg" xmlns:xlink="http://www.w3.org/1999/xlink" viewBox="0 0 512 407.4695"><defs><style>.cls-1{fill:url(#Безымянный_градиент_2)}.cls-2{fill:url(#Безымянный_градиент_2-2)}.cls-3{fill:url(#Безымянный_градиент_2-3)}.cls-4{fill:url(#Безымянный_градиент_2-4)}.cls-5{fill:url(#Безымянный_градиент_2-5)}.cls-6{fill:url(#Безымянный_градиент_2-6)}.cls-7{fill:url(#Безымянный_градиент_2-7)}.cls-8{fill:url(#Безымянный_градиент_2-8)}</style><linearGradient id="Безымянный_градиент_2" data-name="Безымянный градиент 2" x1="17.466" y1="230.594" x2="34.475" y2="230.594" gradientUnits="userSpaceOnUse"><stop offset="0" stop-color="#42a4c7"/><stop offset="1" stop-color="#02c196"/></linearGradient><linearGradient id="Безымянный_градиент_2-2" x1="478.208" y1="503.66" x2="512.341" y2="503.66" xlink:href="#Безымянный_градиент_2"/><linearGradient id="Безымянный_градиент_2-3" x1="51.541" y1="268.994" x2="205.141" y2="268.994" xlink:href="#Безымянный_градиент_2"/><linearGradient id="Безымянный_градиент_2-4" x1="60.074" y1="422.594" x2="196.608" y2="422.594" xlink:href="#Безымянный_градиент_2"/><linearGradient id="Безымянный_градиент_2-5" x1="94.208" y1="409.794" x2="162.474" y2="409.794" xlink:href="#Безымянный_градиент_2"/><linearGradient id="Безымянный_градиент_2-6" x1="94.208" y1="435.394" x2="162.474" y2="435.394" xlink:href="#Безымянный_градиент_2"/><linearGradient id="Безымянный_градиент_2-7" x1=".341" y1="308.459" x2="512.341" y2="308.459" xlink:href="#Безымянный_градиент_2"/><linearGradient id="Безымянный_градиент_2-8" x1="247.808" y1="367.133" x2="264.874" y2="367.133" xlink:href="#Безымянный_градиент_2"/></defs><title>Advantages_2</title><path class="cls-1" d="M25.6 134.403a8.989 8.989 0 0 0 6.059-2.475 8.652 8.652 0 0 0 0-12.117l-1.28-1.025a6.478 6.478 0 0 0-1.537-.77 5.42 5.42 0 0 0-1.538-.51 12.423 12.423 0 0 0-1.704-.17 8.96 8.96 0 0 0-6.059 2.475 8.804 8.804 0 0 0 0 12.116 8.833 8.833 0 0 0 2.813 1.792 8.533 8.533 0 0 0 3.246.684z"/><path class="cls-2" d="M503.466 390.403H486.4a8.533 8.533 0 0 0 0 17.066h17.067a8.533 8.533 0 1 0 0-17.066z"/><path class="cls-3" d="M204.8 228.27v-128a17.084 17.084 0 0 0-17.067-17.067H68.267A17.084 17.084 0 0 0 51.2 100.269v128a17.084 17.084 0 0 0 17.067 17.067h119.466a17.084 17.084 0 0 0 17.067-17.067zm-59.733 0h-34.134v-17.067a8.544 8.544 0 0 1 8.534-8.533h17.066a8.544 8.544 0 0 1 8.534 8.533zm17.066 0v-17.067a25.628 25.628 0 0 0-25.6-25.6h-17.066a25.628 25.628 0 0 0-25.6 25.6v17.067h-25.6v-128h119.466l.013 128z"/><path class="cls-4" d="M76.8 262.403a17.084 17.084 0 0 0-17.067 17.066v76.8A17.084 17.084 0 0 0 76.8 373.337h102.4a17.084 17.084 0 0 0 17.067-17.067v-76.8a17.084 17.084 0 0 0-17.067-17.066zm0 93.866v-76.8h102.4l.013 76.8z"/><path class="cls-5" d="M153.6 296.536h-51.2a8.533 8.533 0 0 0 0 17.066h51.2a8.533 8.533 0 1 0 0-17.066z"/><path class="cls-6" d="M153.6 322.136h-51.2a8.533 8.533 0 0 0 0 17.066h51.2a8.533 8.533 0 1 0 0-17.066z"/><path class="cls-7" d="M512 34.053A34.033 34.033 0 0 0 466.28 2.07c-.109.042-.228.052-.334.099a33.762 33.762 0 0 0-12.204 7.76l-41.639 41.638-.005.005-51.195 51.195-.006.005-51.195 51.195-.005.005-70.212 70.212c-.183.103-.37.195-.552.3V64.564A25.558 25.558 0 0 0 256 40.536v-25.6a8.533 8.533 0 0 0-8.533-8.534H8.533A8.533 8.533 0 0 0 0 14.936v25.6a25.557 25.557 0 0 0 17.067 24.027v27.173a8.533 8.533 0 1 0 17.066 0v-25.6h187.734v324.267H34.133v-230.4a8.533 8.533 0 0 0-17.066 0v230.4H8.533a8.533 8.533 0 0 0 0 17.066h443.734a8.533 8.533 0 1 0 0-17.066H290.133V270.032l31.63-31.631.006-.005 51.195-51.195.005-.005L424.164 136l.005-.005L475.364 84.8l.005-.005 26.623-26.623A34.342 34.342 0 0 0 512 34.053zM230.4 49.069H25.6a8.544 8.544 0 0 1-8.533-8.533V23.47h221.866v17.067a8.544 8.544 0 0 1-8.533 8.533zm42.667 341.334h-34.134V253.869a17.067 17.067 0 1 1 34.134 0zM307.2 228.832l-17.858 17.858a34.115 34.115 0 0 0-23.038-25.19l40.896-40.897zm51.2-51.2l-34.133 34.134v-48.23l34.133-34.133zm51.2-51.2l-34.133 34.133v-48.23L409.6 78.203zm51.2-51.2l-34.133 34.133v-48.23L460.8 27.003zm29.125-29.125l-12.058 12.059v-41.16a17.035 17.035 0 0 1 12.058 29.1z"/><path class="cls-8" d="M263.85 259.157a6.528 6.528 0 0 0-.771-1.533c-.337-.43-.68-.855-1.02-1.28a8.53 8.53 0 0 0-9.305-1.795 8.773 8.773 0 0 0-2.813 1.795c-.341.425-.683.85-1.025 1.28a6.526 6.526 0 0 0-.77 1.533 5.41 5.41 0 0 0-.509 1.537 11.238 11.238 0 0 0-.17 1.709 8.53 8.53 0 0 0 .678 3.241 8.841 8.841 0 0 0 1.796 2.817 9.923 9.923 0 0 0 2.812 1.792 8.534 8.534 0 0 0 3.247.683 11.804 11.804 0 0 0 1.704-.17 5.56 5.56 0 0 0 1.537-.513 6.478 6.478 0 0 0 1.538-.77c.425-.338.85-.68 1.28-1.022a8.901 8.901 0 0 0 1.791-2.817 8.528 8.528 0 0 0 .683-3.241 11.793 11.793 0 0 0-.17-1.709 5.553 5.553 0 0 0-.513-1.537z"/></svg>