<svg xmlns="http://www.w3.org/2000/svg" viewBox="0 0 512 511.816"><defs><style>.cls-1{fill:url(#Безымянный_градиент_5)}</style><linearGradient id="Безымянный_градиент_5" data-name="Безымянный градиент 5" x1="79.872" y1="506.311" x2="430.327" y2="155.857" gradientUnits="userSpaceOnUse"><stop offset="0" stop-color="#42a4c7"/><stop offset="1" stop-color="#02c196"/></linearGradient></defs><title>Purchase_3</title><path class="cls-1" d="M110.199 471.84h348.387a60.063 60.063 0 0 1-56.531 39.976H110.199a60.037 60.037 0 0 1-59.969-59.968V241.953l-23.285 21.242L0 233.66 256.129 0l209.34 190.977h-59.321L256.129 54.117 90.211 205.48v246.368a20.012 20.012 0 0 0 19.988 19.992zM512 331.906a99.932 99.932 0 0 1-179.883 59.973H182.18l-51.989-49.391V322.48l51.836-50.542h150.09A99.931 99.931 0 0 1 512 331.906zm-39.98 0a59.962 59.962 0 0 0-111.903-29.965l-5.777 9.977H198.293l-20.844 20.32 20.692 19.66h28.652l26.113-27.488 28.93 27.488h72.508l5.773 9.977a59.961 59.961 0 0 0 111.903-29.969zm-39.981-19.988a19.99 19.99 0 1 0 19.992 19.988 19.988 19.988 0 0 0-19.992-19.988zm0 0"/></svg>