<svg xmlns="http://www.w3.org/2000/svg" viewBox="0 0 512 510.75"><defs><style>.cls-1{fill:url(#Безымянный_градиент_5)}</style><linearGradient id="Безымянный_градиент_5" data-name="Безымянный градиент 5" x1="111.629" y1="424.793" x2="412.747" y2="123.675" gradientUnits="userSpaceOnUse"><stop offset="0" stop-color="#42a4c7"/><stop offset="1" stop-color="#02c196"/></linearGradient></defs><title>Purchase_1</title><path class="cls-1" d="M204.5 458.605v51.856l-12.539-10.129a840.522 840.522 0 0 1-94.781-92.66C32.695 333.637 0 267.18 0 210.152V204.5C0 91.738 91.738 0 204.5 0S409 91.738 409 204.5v5.652c0 4.789-.254 9.653-.715 14.575l-39.992-36.485c-8.191-83.156-78.52-148.34-163.793-148.34-90.758 0-164.598 73.84-164.598 164.598v5.652c0 96.368 124.164 213.028 164.598 248.453zm122.699-28.66h59.852v-59.851h-59.852zM204.5 119.707a84.793 84.793 0 1 1-84.793 84.793 84.89 84.89 0 0 1 84.793-84.793zm0 39.902a44.891 44.891 0 1 0 44.891 44.891 44.94 44.94 0 0 0-44.891-44.891zm280.609 243.223l-11.218-10.234v64.058a54.158 54.158 0 0 1-54.098 54.094H293.461a54.158 54.158 0 0 1-54.098-54.094v-64.058l-11.218 10.234-26.891-29.477 155.371-141.746L512 373.355zm-51.121-46.637l-77.363-70.574-77.359 70.574v100.457a14.21 14.21 0 0 0 14.195 14.196h126.332a14.21 14.21 0 0 0 14.195-14.196zm0 0"/></svg>