<svg xmlns="http://www.w3.org/2000/svg" xmlns:xlink="http://www.w3.org/1999/xlink" viewBox="0 0 512 511.9988"><defs><style>.cls-1{fill:url(#Безымянный_градиент_2)}.cls-2{fill:url(#Безымянный_градиент_2-2)}.cls-3{fill:url(#Безымянный_градиент_2-3)}.cls-4{fill:url(#Безымянный_градиент_2-4)}.cls-5{fill:url(#Безымянный_градиент_2-5)}.cls-6{fill:url(#Безымянный_градиент_2-6)}</style><linearGradient id="Безымянный_градиент_2" data-name="Безымянный градиент 2" x1="274.197" y1="456.337" x2="512" y2="456.337" gradientUnits="userSpaceOnUse"><stop offset="0" stop-color="#42a4c7"/><stop offset="1" stop-color="#02c196"/></linearGradient><linearGradient id="Безымянный_градиент_2-2" x1="170.543" y1="449.506" x2="295.182" y2="449.506" xlink:href="#Безымянный_градиент_2"/><linearGradient id="Безымянный_градиент_2-3" x1="363.815" y1="341.381" x2="512" y2="341.381" xlink:href="#Безымянный_градиент_2"/><linearGradient id="Безымянный_градиент_2-4" y1="255.861" x2="512" y2="255.861" xlink:href="#Безымянный_градиент_2"/><linearGradient id="Безымянный_градиент_2-5" x1="397.398" y1="89.86" x2="417.398" y2="89.86" xlink:href="#Безымянный_градиент_2"/><linearGradient id="Безымянный_градиент_2-6" x1="317.668" y1="372.196" x2="337.668" y2="372.196" xlink:href="#Безымянный_градиент_2"/></defs><title>Advantages_6</title><path class="cls-1" d="M502 400.956c-83.516 0-165.484 34.258-224.891 93.988a10 10 0 0 0 14.18 14.106c55.68-55.985 132.481-88.094 210.711-88.094a10 10 0 0 0 0-20z"/><path class="cls-2" d="M293.469 391.694a9.995 9.995 0 0 0-13.883-2.687A394.702 394.702 0 0 0 172.242 496.42a10.002 10.002 0 1 0 16.606 11.152 374.703 374.703 0 0 1 101.933-101.996 10.002 10.002 0 0 0 2.688-13.883z"/><path class="cls-3" d="M502 320.456a393.295 393.295 0 0 0-131.52 22.699 9.999 9.999 0 1 0 6.672 18.852A373.35 373.35 0 0 1 502 340.456a10 10 0 0 0 0-20z"/><path class="cls-4" d="M409.387 275.722l.054-.012A445.718 445.718 0 0 1 502 265.96a10 10 0 0 0 0-20 470.567 470.567 0 0 0-84.602 7.69v-21.585c36.145-30.597 55.985-70.691 55.985-113.386 0-44.145-21.207-85.508-59.719-116.473a10.007 10.007 0 0 0-12.535 0C362.621 33.17 341.41 74.534 341.41 118.679c0 42.695 19.844 82.789 55.985 113.386v25.676a473.432 473.432 0 0 0-56.063 16.473v-58.551a9.964 9.964 0 0 0-2.906-7.047v-.004l-56-56.332a10.013 10.013 0 0 0-7.094-2.95H161a10.004 10.004 0 0 0-7.09 2.95l-56 56.332v.004a9.97 9.97 0 0 0-2.91 7.05v38.188q-10.454-1.916-21-3.363v-35.648c27.332-23.512 42.328-54.176 42.328-86.844 0-34.13-16.359-66.074-46.062-89.961a10.003 10.003 0 0 0-12.532 0C28.031 61.92 11.672 93.87 11.672 127.998c0 32.665 14.996 63.329 42.328 86.84v33.352q-21.873-2.045-44-2.066a10 10 0 0 0 0 20 451.028 451.028 0 0 1 227.121 61.293 472.153 472.153 0 0 0-47.234 36.687A397.856 397.856 0 0 0 10 320.624a10 10 0 1 0 0 20 377.515 377.515 0 0 1 164.172 38.004 472.553 472.553 0 0 0-42.527 47.074A312.825 312.825 0 0 0 10 401.124a10 10 0 1 0 0 20 292.668 292.668 0 0 1 109.188 21.109q-10.367 14.403-19.653 29.59l-15.238 24.965a9.999 9.999 0 1 0 17.07 10.418l15.238-24.965a444.2 444.2 0 0 1 25.684-37.574 9.452 9.452 0 0 0 .988-1.29 455.79 455.79 0 0 1 266.11-167.655zm-47.973-157.043c0-35.543 16.262-69.211 45.984-95.594 29.723 26.383 45.985 60.05 45.985 95.594 0 31.32-12.641 61.19-35.985 85.898v-76.578a10 10 0 1 0-20 0v76.578c-23.347-24.707-35.984-54.578-35.984-85.898zM64 109.999a10.002 10.002 0 0 0-10 10v66.543c-14.52-17.25-22.328-37.461-22.328-58.543 0-25.508 11.418-49.734 32.328-68.984 20.91 19.246 32.328 43.476 32.328 68.984 0 21.082-7.808 41.293-22.328 58.543v-66.543a10 10 0 0 0-10-10zm97 63.516l31.961 32.148h-63.918zm12 101.675q-11.895-4.382-24-8.121v-7.574h24zm34 14.067q-6.955-3.2-14-6.176v-33.586a10.002 10.002 0 0 0-10-10h-44a10.004 10.004 0 0 0-10 10v11.89q-6.972-1.816-14-3.43v-32.292h92zM185.043 169.33h86.133l36.117 36.332H221.16zM227 299.04v-73.378h94.336v56.313a469.315 469.315 0 0 0-50.094 24.308q-7.78 4.365-15.379 9.035-14.18-8.66-28.863-16.277z"/><path class="cls-5" d="M407.398 99.999a10.017 10.017 0 1 0-7.066-2.934 10.067 10.067 0 0 0 7.066 2.934z"/><path class="cls-6" d="M320.598 365.269a9.985 9.985 0 1 0 7.07-2.934 10.083 10.083 0 0 0-7.07 2.934z"/></svg>