<svg xmlns="http://www.w3.org/2000/svg" xmlns:xlink="http://www.w3.org/1999/xlink" viewBox="0 0 512 512.0005"><defs><style>.cls-1{fill:url(#Безымянный_градиент_2)}.cls-2{fill:url(#Безымянный_градиент_2-2)}.cls-3{fill:url(#Безымянный_градиент_2-3)}.cls-4{fill:url(#Безымянный_градиент_2-4)}.cls-5{fill:url(#Безымянный_градиент_2-5)}.cls-6{fill:url(#Безымянный_градиент_2-6)}</style><linearGradient id="Безымянный_градиент_2" data-name="Безымянный градиент 2" x1="213.008" y1="8.249" x2="230.075" y2="8.249" gradientUnits="userSpaceOnUse"><stop offset="0" stop-color="#42a4c7"/><stop offset="1" stop-color="#02c196"/></linearGradient><linearGradient id="Безымянный_градиент_2-2" x1="102.075" y1="221.606" x2="127.675" y2="221.606" xlink:href="#Безымянный_градиент_2"/><linearGradient id="Безымянный_градиент_2-3" x1="153.275" y1="238.673" x2="178.875" y2="238.673" xlink:href="#Безымянный_градиент_2"/><linearGradient id="Безымянный_градиент_2-4" x1="204.475" y1="221.606" x2="230.075" y2="221.606" xlink:href="#Безымянный_градиент_2"/><linearGradient id="Безымянный_градиент_2-5" x1="-.325" y1="255.739" x2="511.675" y2="255.739" xlink:href="#Безымянный_градиент_2"/><linearGradient id="Безымянный_градиент_2-6" x1="306.874" y1="430.673" x2="400.742" y2="430.673" xlink:href="#Безымянный_градиент_2"/></defs><title>Advantages_3</title><path class="cls-1" d="M218.624 16.384a8.712 8.712 0 0 0 9.301-1.792 8.804 8.804 0 0 0 1.792-2.816 8.534 8.534 0 0 0 .683-3.242 8.977 8.977 0 0 0-2.475-6.059 8.653 8.653 0 0 0-12.117 0l-1.024 1.28a6.463 6.463 0 0 0-.768 1.536 5.429 5.429 0 0 0-.512 1.536 12.805 12.805 0 0 0-.171 1.707 8.977 8.977 0 0 0 2.475 6.058 8.805 8.805 0 0 0 2.816 1.792z"/><path class="cls-2" d="M119.467 213.334h-8.534a8.533 8.533 0 1 0 0 17.066h8.534a8.533 8.533 0 0 0 0-17.066z"/><path class="cls-3" d="M170.667 230.4h-8.534a8.533 8.533 0 0 0 0 17.067h8.534a8.533 8.533 0 0 0 0-17.067z"/><path class="cls-4" d="M221.867 213.334h-8.534a8.533 8.533 0 0 0 0 17.066h8.534a8.533 8.533 0 0 0 0-17.066z"/><path class="cls-5" d="M503.467 494.934H463.41l31.36-204.433a15.147 15.147 0 0 0-3.558-12.135 15.36 15.36 0 0 0-11.64-5.299h-7.313c-1.007 0-1.971.154-2.961.213v-27.69a15.198 15.198 0 0 0-15.155-15.19h-27.477v-17.066a8.533 8.533 0 0 0-8.534-8.533H384v-1.878a15.206 15.206 0 0 0-11.878-14.805l10.94-94.251h9.472a8.533 8.533 0 0 0 8.533-8.533v-25.6a25.6 25.6 0 0 0-25.6-25.6V25.6a25.6 25.6 0 0 0-25.6-25.6H256a8.533 8.533 0 0 0 0 17.066h93.867A8.533 8.533 0 0 1 358.4 25.6v8.533H145.067V25.6a8.533 8.533 0 0 1 8.533-8.534h34.133a8.533 8.533 0 0 0 0-17.066H153.6A25.6 25.6 0 0 0 128 25.6v8.533a25.6 25.6 0 0 0-25.6 25.6v25.6a8.533 8.533 0 0 0 8.533 8.533h9.472l8.934 76.8h-18.406a93.978 93.978 0 0 0-93.866 93.867v8.533a17.067 17.067 0 0 0 17.066 17.067h8.534v26.812a33.817 33.817 0 0 0-25.498 35.387 34.295 34.295 0 0 0 25.498 30.14V409.6h-8.534a17.067 17.067 0 0 0-17.066 17.066v25.6a59.538 59.538 0 0 0 18.005 42.667H8.533a8.533 8.533 0 1 0 0 17.067h494.934a8.533 8.533 0 1 0 0-17.067zm-76.8-247.467h25.6v30.584a41.284 41.284 0 0 0-19.311 21.265 82.547 82.547 0 0 1-6.29 12.382zM384 221.867h25.6v108.954A73.165 73.165 0 0 1 384 343.69zM119.467 76.801V59.733A8.533 8.533 0 0 1 128 51.2h247.467A8.533 8.533 0 0 1 384 59.735V76.8zm221.866 128h25.6v141.704c-2.824.222-5.615.52-8.533.52a100.01 100.01 0 0 1-17.067-1.578zm-1.877-17.067a15.198 15.198 0 0 0-12.638 6.775 92.74 92.74 0 0 0-58.317-23.73c-1.322-.112-2.645-.112-3.968-.112H146.517l-8.934-76.8h228.3l-10.896 93.867zM34.133 273.067v-8.533a76.894 76.894 0 0 1 76.8-76.8h153.6c.896 0 1.784 0 3.004.077a76.228 76.228 0 0 1 45.099 16.99h-15.847A15.198 15.198 0 0 0 281.6 219.99v18.944h-27.477a15.198 15.198 0 0 0-15.19 15.19v18.943zm290.134-51.2v118.87a69.793 69.793 0 0 1-25.6-17.724V221.867zM281.6 256.001v38.886A41.575 41.575 0 0 0 256 274.68V256zm-55.706 59.733h-26.129a17.066 17.066 0 0 0-12.032 4.975l-42.667 42.666L102.4 320.71a17.067 17.067 0 0 0-12.032-4.975H59.733v-25.6H222.02v.486zm2.637 17.066l5.197 34.134h-68.07l34.133-34.134zm7.842 51.2l8.943 58.386-6.383 6.348-34.133-34.133a17.067 17.067 0 0 0-12.032-5H59.733V384zm-202.18-32.896a16.733 16.733 0 0 1 4.95-13.294A16.922 16.922 0 0 1 51.2 332.8h39.108l34.134 34.134H52.65a18.116 18.116 0 0 1-18.458-15.83zM76.8 494.917a42.718 42.718 0 0 1-42.667-42.65v-25.6h158.558l40.192 40.192a8.533 8.533 0 0 0 12.066 0l3.516-3.516 4.847 31.573zm193.783.017l-31.351-204.8h5.214a25.293 25.293 0 0 1 23.5 15.522 94.772 94.772 0 0 0 15.583 26.155 7.846 7.846 0 0 0 1.024 1.169 95.036 95.036 0 0 0 73.847 31.112c42.667 0 75.605-21.333 90.453-58.445a25.293 25.293 0 0 1 23.441-15.513h5.266l-31.412 204.8z"/><path class="cls-6" d="M354.133 384a46.933 46.933 0 1 0 46.934 46.934A46.933 46.933 0 0 0 354.133 384zm0 76.8A29.867 29.867 0 1 1 384 430.935a29.867 29.867 0 0 1-29.867 29.866z"/></svg>