<svg xmlns="http://www.w3.org/2000/svg" width="306.77" height="306.62" viewBox="61.95 -241.62 306.77 306.62"><linearGradient id="a" gradientUnits="userSpaceOnUse" x1="215.333" y1="-63.763" x2="215.333" y2="242.861" gradientTransform="matrix(1 0 0 -1 0 2.73)"><stop offset="0" stop-color="#5392a9"/><stop offset="1" stop-color="#17ab8a"/></linearGradient><path fill="url(#a)" d="M363.78-33.92c-1.01-2.54-3.89-3.77-6.43-2.76l-14.43 5.77-3.12-18.74a4.96 4.96 0 0 0-5.69-4.07 4.947 4.947 0 0 0-4.07 5.69l3.6 21.64-19.32 12.89v-55.04c0-.3-.03-.59-.08-.89l-6.13-33.74h25.47c19.14.1 34.81-15.2 35.15-34.34a34.33 34.33 0 0 0-12.78-27.12 29.37 29.37 0 0 0 2.88-12.73c-.02-16.38-13.29-29.66-29.68-29.68-.02-19.12-15.55-34.61-34.67-34.58-15.54.02-29.16 10.39-33.32 25.36-2.03-.44-4.11-.67-6.19-.67-16.38.02-29.66 13.3-29.67 29.68 0 2.52.34 5.02.99 7.45a39.735 39.735 0 0 0-18.44 14.21c-18.05-20.45-49.26-22.4-69.71-4.35a49.403 49.403 0 0 0-15.73 27.23c-19.19-.47-35.13 14.71-35.6 33.91-.01.23-.01.46-.01.69a34.337 34.337 0 0 0 5.83 19.24 24.539 24.539 0 0 0-10.77 20.31c0 3.75.87 7.45 2.54 10.81-15.9 3.99-25.55 20.12-21.55 36.02C66.22-8.32 78.4.99 92.23.71h78.66v59.34c0 2.73 2.21 4.95 4.95 4.95 2.73 0 4.95-2.21 4.95-4.95V.71h58.86c16.63.03 30.13-13.43 30.16-30.06-.2-15.02-11.59-27.53-26.52-29.14 1.19-3.22 1.8-6.62 1.79-10.06a29.742 29.742 0 0 0-10.01-22.15c.08-.87.12-1.73.12-2.58-.02-3.38-.64-6.73-1.82-9.89h64.68l6.38 35.08v6.39l-19.79-9.91v-11.77c0-2.73-2.21-4.94-4.94-4.94-2.73 0-4.95 2.21-4.95 4.94v9.89h-14.84c-2.73 0-4.94 2.21-4.94 4.94 0 2.73 2.21 4.94 4.94 4.94h18.62l25.9 12.95v110.7c0 2.73 2.21 4.95 4.95 4.95 2.73 0 4.95-2.21 4.95-4.95V-1.6l27.04-18.02 19.66-7.86a4.953 4.953 0 0 0 2.75-6.44c0 .01 0 .01 0 0zM235.19-68.54c-.02 4.54-1.62 8.93-4.53 12.42a4.939 4.939 0 0 0 .72 6.95 4.96 4.96 0 0 0 4.23.98c10.5-2.6 21.12 3.79 23.72 14.29.37 1.5.57 3.04.58 4.58.01 11.1-8.98 20.12-20.08 20.13h-59.05v-7.85l19.79-19.79a4.943 4.943 0 0 0-6.99-6.99l-14.56 14.56-4.67-25.67 29.33-16.76a4.942 4.942 0 0 0 1.84-6.75 4.942 4.942 0 0 0-6.75-1.84l-26.3 15.03-1.3-7.15L197-111.14c1.51-2.27.9-5.34-1.37-6.86-2.27-1.52-5.34-.9-6.86 1.37l-6.66 9.99-14.47-28.93a4.952 4.952 0 0 0-6.64-2.21 4.952 4.952 0 0 0-2.21 6.64l16.99 33.99-10.81 16.21-36.55-32.51a4.946 4.946 0 0 0-6.97.41 4.946 4.946 0 0 0 .41 6.97l39.52 35.16 3.36 18.51-19.29-9.65-3.2-12.78a4.94 4.94 0 0 0-5.99-3.6 4.946 4.946 0 0 0-3.61 5.99v.02l2.78 11.14-11.81 5.9a4.943 4.943 0 0 0-2.21 6.63 4.943 4.943 0 0 0 6.63 2.21l13.15-6.58 25.75 12.88 3.93 21.59v9.46H92.14C81.03-9.17 72-18.14 71.97-29.25v-.07c.2-10.78 8.99-19.43 19.78-19.44.22.01.45.03.67.08.35.04.69.09 1.05.12 2.15.21 4.19-1.02 4.99-3.02a4.92 4.92 0 0 0-1.37-5.67c-6.25-5.14-7.15-14.38-2.01-20.63a14.65 14.65 0 0 1 6.85-4.65 4.945 4.945 0 0 0 3.12-6.26c-.24-.72-.64-1.37-1.17-1.91a24.544 24.544 0 0 1-7.16-17.97c.39-13.1 10.87-23.66 23.97-24.15 1.7-.05 3.4.08 5.08.39 1.35.23 2.74-.11 3.84-.93a4.9 4.9 0 0 0 1.93-3.45c2.14-21.74 21.5-37.64 43.24-35.5s37.64 21.5 35.5 43.24c-.35 3.56-1.18 7.05-2.47 10.39a4.94 4.94 0 0 0 2.85 6.39c.13.05.26.09.39.13 9.84 2.74 15.9 12.61 13.89 22.63-.36 1.89.41 3.82 1.97 4.95 5.16 3.7 8.25 9.67 8.28 16.04zm-7.79-44.52a29.82 29.82 0 0 0-8.84-6.73 49.069 49.069 0 0 0-4.49-37.07c4.11-7.58 11.31-13 19.73-14.85a4.946 4.946 0 0 0 3.41-6.99 19.512 19.512 0 0 1-2.04-8.54c.01-10.92 8.86-19.77 19.79-19.79 2.77.01 5.5.6 8.02 1.74 2.5 1.11 5.42-.01 6.54-2.5.22-.5.36-1.03.41-1.57 1.25-13.6 13.29-23.6 26.88-22.35 13.6 1.25 23.6 13.29 22.35 26.88-.08.83-.19 1.65-.35 2.47a4.937 4.937 0 0 0 3.92 5.78c.67.13 1.37.12 2.03-.04 10.61-2.46 21.2 4.14 23.67 14.74 1.26 5.44.16 11.16-3.03 15.74a5.09 5.09 0 0 0-.93 2.28c-.24 1.95.68 3.87 2.36 4.89a24.56 24.56 0 0 1 11.99 21.52c-.36 13.63-11.56 24.47-25.2 24.38H306.3l-1.6-8.81 25.83-38.74c1.51-2.27.9-5.34-1.37-6.86-2.27-1.52-5.34-.9-6.86 1.37l-6.66 9.99-14.47-28.93a4.943 4.943 0 0 0-6.63-2.21 4.943 4.943 0 0 0-2.21 6.63l17 34-11.92 17.88-7.81-2.35v-16.6c0-2.73-2.21-4.94-4.94-4.94-2.73 0-4.94 2.21-4.94 4.94v13.63l-23.52-7.06c-2.62-.78-5.37.7-6.16 3.31-.79 2.62.7 5.37 3.31 6.16l41.8 12.55 1.1 6.02-68.85.03z"/></svg>