<?xml version="1.0" encoding="utf-8"?>
<!-- Generator: Adobe Illustrator 25.2.3, SVG Export Plug-In . SVG Version: 6.00 Build 0)  -->
<svg version="1.1" id="Слой_1" xmlns="http://www.w3.org/2000/svg" xmlns:xlink="http://www.w3.org/1999/xlink" x="0px" y="0px"
	 viewBox="0 0 885.5 935.2" style="enable-background:new 0 0 885.5 935.2;" xml:space="preserve">
<style type="text/css">
	.st0{fill:none;stroke:#808080;stroke-width:0.25;stroke-linecap:round;stroke-linejoin:round;stroke-miterlimit:10;}
	.st1{fill:none;stroke:#000000;stroke-linecap:round;stroke-linejoin:round;stroke-miterlimit:10;}
	.st2{fill:none;stroke:#000000;stroke-width:0.3;stroke-miterlimit:10;}
	.st3{fill:none;stroke:#000000;stroke-width:0.3;stroke-linecap:round;stroke-linejoin:round;stroke-miterlimit:10;}
	.st4{fill:none;}
	.st5{fill:none;stroke:#000000;stroke-width:0.546;stroke-linecap:round;stroke-linejoin:round;stroke-miterlimit:10;}
	.st6{fill:none;stroke:#000000;stroke-width:0.2;stroke-linecap:round;stroke-linejoin:round;stroke-miterlimit:10;}
	.st7{fill:none;stroke:#000000;stroke-width:0.2;stroke-miterlimit:10;}
	.st8{fill:none;stroke:#000000;stroke-width:0.4993;stroke-linecap:round;stroke-linejoin:round;stroke-miterlimit:10;}
	.st9{fill:none;stroke:#808080;stroke-width:0.25;stroke-miterlimit:10;}
	.st10{fill:none;stroke:#000000;stroke-width:0.5;stroke-linecap:round;stroke-linejoin:round;stroke-miterlimit:10;}
	.st11{fill:none;stroke:#000000;stroke-width:0.4984;stroke-linecap:round;stroke-linejoin:round;stroke-miterlimit:10;}
	.st12{fill:none;stroke:#6A6A6A;stroke-width:0.2;stroke-linecap:round;stroke-linejoin:round;stroke-miterlimit:10;}
	.st13{font-family:'ArialNarrow-Italic';}
	.st14{font-size:38.0228px;}
	.st15{fill:none;stroke:#000000;stroke-width:0.506;stroke-linecap:round;stroke-linejoin:round;stroke-miterlimit:10;}
</style>
<line class="st0" x1="349.3" y1="75.2" x2="440.3" y2="75.2"/>
<line class="st0" x1="664.9" y1="489.5" x2="664.9" y2="563.4"/>
<line class="st1" x1="821.6" y1="291.2" x2="794.2" y2="291.2"/>
<line class="st1" x1="688.2" y1="291.1" x2="688.2" y2="246.8"/>
<line class="st1" x1="794.1" y1="246.7" x2="863.8" y2="246.7"/>
<polyline class="st2" points="791.5,291.3 791.5,280.5 794.1,280.5 794.1,291.3 791.5,291.3 "/>
<line class="st3" x1="791.5" y1="268.4" x2="791.5" y2="246.7"/>
<line class="st3" x1="791.5" y1="246.7" x2="794.1" y2="246.7"/>
<line class="st3" x1="794.1" y1="268.4" x2="791.5" y2="268.4"/>
<line class="st3" x1="688.2" y1="246.7" x2="690.8" y2="246.7"/>
<line class="st3" x1="690.8" y1="268.4" x2="688.2" y2="268.4"/>
<line class="st3" x1="791.5" y1="280.5" x2="794.1" y2="280.5"/>
<line class="st3" x1="688.2" y1="280.5" x2="690.8" y2="280.5"/>
<line class="st3" x1="690.8" y1="280.5" x2="690.8" y2="291.2"/>
<line class="st3" x1="690.8" y1="291.3" x2="688.2" y2="291.3"/>
<polyline class="st4" points="891,982.6 891,-71.5 -68.2,-71.5 -68.2,982.6 891,982.6 "/>
<path class="st3" d="M791.2,268.4c0-55.2-44.8-100-100-100"/>
<polyline class="st2" points="691.1,168.4 695.4,168.4 695.4,268.4 691.1,268.4 691.1,168.4 "/>
<line class="st3" x1="789.9" y1="280.5" x2="789.9" y2="272.6"/>
<line class="st3" x1="789.9" y1="272.6" x2="791.2" y2="272.6"/>
<line class="st3" x1="791.2" y1="272.6" x2="791.2" y2="268.4"/>
<line class="st3" x1="791.2" y1="268.4" x2="794.1" y2="268.4"/>
<line class="st3" x1="794.1" y1="280.5" x2="789.9" y2="280.5"/>
<line class="st3" x1="691.1" y1="268.4" x2="691.1" y2="272.6"/>
<line class="st3" x1="691.1" y1="272.6" x2="692.4" y2="272.6"/>
<line class="st3" x1="692.4" y1="272.6" x2="692.4" y2="280.5"/>
<line class="st3" x1="692.4" y1="280.5" x2="688.2" y2="280.5"/>
<line class="st5" x1="344.4" y1="394.9" x2="331.8" y2="394.9"/>
<line class="st1" x1="331.8" y1="690.5" x2="331.8" y2="394.9"/>
<line class="st3" x1="331.8" y1="299.6" x2="331.8" y2="291.2"/>
<line class="st3" x1="344.5" y1="291.2" x2="344.5" y2="299.6"/>
<polyline class="st4" points="891,982.6 891,-71.5 -68.2,-71.5 -68.2,982.6 891,982.6 "/>
<path class="st3" d="M407.7,328.8c-16.8-16.8-39.5-26.1-63.2-26.1"/>
<polyline class="st2" points="331.8,303.8 331.8,299.6 344.5,299.6 344.5,302.6 340.2,302.6 340.2,303.8 331.8,303.8 "/>
<polyline class="st2" points="407.7,328.8 344.5,392 341.5,389 404.7,325.8 407.7,328.8 "/>
<line class="st3" x1="331.8" y1="303.8" x2="340.2" y2="303.8"/>
<line class="st3" x1="340.2" y1="303.8" x2="340.2" y2="302.6"/>
<line class="st3" x1="340.2" y1="302.6" x2="344.5" y2="302.6"/>
<line class="st3" x1="344.5" y1="302.6" x2="344.5" y2="299.6"/>
<line class="st3" x1="331.8" y1="299.6" x2="331.8" y2="303.8"/>
<line class="st3" x1="344.5" y1="394.9" x2="344.5" y2="392"/>
<line class="st3" x1="344.5" y1="392" x2="340.2" y2="392"/>
<line class="st3" x1="340.2" y1="392" x2="340.2" y2="390.7"/>
<line class="st3" x1="340.2" y1="390.7" x2="331.8" y2="390.7"/>
<line class="st3" x1="331.8" y1="390.7" x2="331.8" y2="394.9"/>
<line class="st1" x1="470" y1="274.3" x2="470" y2="291.2"/>
<line class="st1" x1="554.7" y1="274.4" x2="554.7" y2="291.2"/>
<line class="st1" x1="688.2" y1="291.2" x2="554.7" y2="291.2"/>
<line class="st1" x1="470" y1="291.2" x2="332.3" y2="291.2"/>
<line class="st1" x1="349.2" y1="274.2" x2="470" y2="274.2"/>
<line class="st1" x1="554.7" y1="274.2" x2="622.5" y2="274.2"/>
<polyline class="st4" points="891,982.6 891,-71.5 -68.2,-71.5 -68.2,982.6 891,982.6 "/>
<path class="st3" d="M528.7,346.8c14.8-14.8,23.1-34.8,23.1-55.8"/>
<polyline class="st2" points="528.7,346.8 472.9,291.2 476,288.1 531.6,343.9 528.7,346.8 "/>
<line class="st3" x1="550.5" y1="274.2" x2="550.5" y2="286.9"/>
<line class="st3" x1="550.5" y1="286.9" x2="551.8" y2="286.9"/>
<line class="st3" x1="551.8" y1="286.9" x2="551.8" y2="291.2"/>
<line class="st3" x1="551.8" y1="291.2" x2="554.7" y2="291.2"/>
<line class="st3" x1="554.7" y1="274.2" x2="550.5" y2="274.2"/>
<line class="st3" x1="470" y1="291.2" x2="472.9" y2="291.2"/>
<line class="st3" x1="472.9" y1="291.2" x2="472.9" y2="286.9"/>
<line class="st3" x1="472.9" y1="286.9" x2="474.2" y2="286.9"/>
<line class="st3" x1="474.2" y1="286.9" x2="474.2" y2="274.2"/>
<line class="st3" x1="474.2" y1="274.2" x2="470" y2="274.2"/>
<line class="st1" x1="331.8" y1="291.2" x2="331.8" y2="53.8"/>
<line class="st1" x1="349.2" y1="53.8" x2="349.2" y2="274.2"/>
<line class="st1" x1="615.9" y1="412.9" x2="623.7" y2="412.9"/>
<line class="st1" x1="623.8" y1="412.9" x2="623.8" y2="476.4"/>
<line class="st1" x1="821.6" y1="489.3" x2="623.8" y2="489.3"/>
<line class="st1" x1="615.9" y1="535.8" x2="615.9" y2="413"/>
<line class="st1" x1="615.9" y1="535.8" x2="623.6" y2="535.8"/>
<line class="st0" x1="664.9" y1="535.8" x2="623.8" y2="535.8"/>
<line class="st1" x1="662.8" y1="246.7" x2="688.1" y2="246.7"/>
<line class="st1" x1="622.5" y1="291" x2="622.5" y2="53.9"/>
<line class="st1" x1="344.5" y1="730.7" x2="208.4" y2="730.7"/>
<line class="st1" x1="59" y1="690.5" x2="113.1" y2="690.5"/>
<line class="st1" x1="208.4" y1="690.5" x2="344.5" y2="690.5"/>
<line class="st6" x1="208.4" y1="725.5" x2="206.3" y2="725.5"/>
<line class="st1" x1="208.4" y1="690.5" x2="208.4" y2="730.7"/>
<line class="st6" x1="113.1" y1="725.5" x2="115.2" y2="725.5"/>
<line class="st1" x1="113.1" y1="730.7" x2="113.1" y2="690.6"/>
<line class="st6" x1="113.1" y1="708.5" x2="208.6" y2="708.5"/>
<polyline class="st7" points="200.5,722.8 200.5,728.1 203.1,728.1 203.1,730.7 118.3,730.7 118.3,728.1 121,728.1 121,722.8 
	200.5,722.8 "/>
<polyline class="st7" points="115.7,722.8 121,722.8 121,728.1 115.7,728.1 115.7,722.8 "/>
<polyline class="st7" points="205.7,728.1 200.5,728.1 200.5,722.8 205.7,722.8 205.7,728.1 "/>
<polyline class="st7" points="200.5,728.1 121,728.1 121,722.8 200.5,722.8 200.5,728.1 "/>
<line class="st6" x1="113.1" y1="725.5" x2="115.7" y2="725.5"/>
<line class="st6" x1="118.3" y1="728.1" x2="118.3" y2="730.7"/>
<line class="st6" x1="118.3" y1="730.7" x2="113.1" y2="730.7"/>
<line class="st6" x1="208.4" y1="730.7" x2="203.1" y2="730.7"/>
<line class="st6" x1="203.1" y1="730.7" x2="203.1" y2="728.1"/>
<line class="st6" x1="205.7" y1="728.1" x2="205.7" y2="725.5"/>
<line class="st6" x1="205.7" y1="725.5" x2="208.4" y2="725.5"/>
<line class="st6" x1="203.1" y1="730.7" x2="118.3" y2="730.7"/>
<line class="st6" x1="121" y1="725.5" x2="200.5" y2="725.5"/>
<line class="st1" x1="579.7" y1="881.2" x2="579.7" y2="921.2"/>
<line class="st8" x1="579.7" y1="921.3" x2="662.6" y2="921.3"/>
<line class="st1" x1="113.1" y1="730.7" x2="16.6" y2="730.7"/>
<line class="st1" x1="59" y1="53.9" x2="59" y2="690.5"/>
<line class="st1" x1="16.6" y1="730.7" x2="16.6" y2="12.5"/>
<line class="st1" x1="344.5" y1="690.4" x2="344.5" y2="395"/>
<line class="st1" x1="821.5" y1="476.5" x2="623.8" y2="476.5"/>
<line class="st0" x1="728.8" y1="552.8" x2="728.8" y2="489.3"/>
<line class="st0" x1="756" y1="552.8" x2="728.8" y2="552.8"/>
<line class="st0" x1="756" y1="879" x2="756" y2="552.8"/>
<line class="st0" x1="821.6" y1="879" x2="756" y2="879"/>
<line class="st0" x1="728.8" y1="489.3" x2="728.8" y2="563.5"/>
<line class="st0" x1="728.8" y1="563.5" x2="664.9" y2="563.5"/>
<polyline class="st9" points="761.3,788.8 761.3,727.4 814.2,727.4 814.2,788.8 761.3,788.8 "/>
<polyline class="st9" points="763.4,648.9 763.4,590.8 816.4,590.8 816.4,648.9 763.4,648.9 "/>
<line class="st0" x1="707.6" y1="526.4" x2="686.4" y2="526.4"/>
<line class="st0" x1="704.5" y1="533.8" x2="689.4" y2="518.9"/>
<line class="st0" x1="696.9" y1="536.9" x2="696.9" y2="515.7"/>
<line class="st0" x1="689.4" y1="533.8" x2="704.5" y2="518.9"/>
<line class="st0" x1="768.7" y1="643.7" x2="768.7" y2="596"/>
<line class="st0" x1="768.7" y1="596" x2="805.8" y2="596"/>
<line class="st0" x1="805.8" y1="596" x2="805.8" y2="643.7"/>
<line class="st0" x1="805.8" y1="643.7" x2="768.7" y2="643.7"/>
<path class="st0" d="M794.6,774.9c0-4.2,3.5-7.7,7.7-7.7s7.7,3.5,7.7,7.7s-3.5,7.7-7.7,7.7C798.1,782.6,794.6,779.2,794.6,774.9"/>
<path class="st0" d="M766.1,771.4c0-6.1,5-11.2,11.2-11.2s11.2,5,11.2,11.2c0,6.1-5,11.2-11.2,11.2S766.1,777.5,766.1,771.4"/>
<path class="st0" d="M790.7,742.7c0-5.3,4.2-9.5,9.5-9.5s9.5,4.2,9.5,9.5s-4.2,9.5-9.5,9.5C795,752.2,790.7,747.9,790.7,742.7"/>
<path class="st0" d="M767.9,740.5c0-4.2,3.5-7.7,7.7-7.7s7.7,3.5,7.7,7.7s-3.5,7.7-7.7,7.7C771.3,748.2,767.9,744.8,767.9,740.5"/>
<line class="st0" x1="372.1" y1="75.3" x2="372.1" y2="110"/>
<path class="st0" d="M372.1,110c0,5.4,2.5,10.5,6.9,13.8c3.7,2.7,8.1,4.2,12.8,4.2c4.5,0,9.1-1.5,12.8-4.2h-0.1
	c4.3-3.3,6.9-8.3,6.9-13.8V75.2"/>
<path class="st0" d="M400.4,118.7c-2.5,1.9-5.7,3-8.9,3s-6.3-1.1-8.9-3v-0.1c-2.7-2-4.3-5.3-4.3-8.6V87.8h26.5V110v0.1
	c0,3.4-1.6,6.6-4.3,8.6"/>
<line class="st0" x1="440.4" y1="130.1" x2="440.4" y2="54.1"/>
<line class="st0" x1="622.3" y1="130.1" x2="440.4" y2="130.1"/>
<path class="st9" d="M599.4,61.9c8,0,15.1,6.8,15,14.9v32.6l-0.2,2.6c-0.6,3.2-2.6,6.7-5.2,8.7c-1.8,1.5-4.8,2.7-7.1,3.3l-2.5,0.2
	H477.9c-26.5-0.4-41.2-30.4-24.1-51.1c4.5-5.4,11.8-9.4,18.7-10.6L478,62L599.4,61.9"/>
<path class="st0" d="M592.4,93c0-1.5,1.2-2.6,2.6-2.6c1.5,0,2.6,1.2,2.6,2.6s-1.2,2.6-2.6,2.6C593.5,95.8,592.4,94.5,592.4,93"/>
<path class="st0" d="M617.1,95.8c1.5,0,2.6-1.2,2.6-2.6s-1.2-2.6-2.6-2.6"/>
<line class="st0" x1="612.6" y1="90.8" x2="617.1" y2="90.4"/>
<path class="st0" d="M612.6,90.8c-0.3,0-0.7,0.1-1.1,0.3"/>
<line class="st0" x1="606.1" y1="91.9" x2="611.7" y2="91.2"/>
<path class="st0" d="M606.1,91.9c-0.6,0.1-1.1,0.5-1.1,1.2s0.4,1.1,1.1,1.2"/>
<line class="st0" x1="611.7" y1="94.9" x2="606.1" y2="94.3"/>
<path class="st0" d="M611.8,95c0.2,0.2,0.5,0.3,0.8,0.3"/>
<line class="st0" x1="617.1" y1="95.8" x2="612.6" y2="95.3"/>
<line class="st0" x1="614.4" y1="91.7" x2="612.9" y2="91.7"/>
<line class="st0" x1="612.9" y1="94.6" x2="614.3" y2="94.6"/>
<path class="st0" d="M612.9,91.7c-0.8,0-1.5,0.6-1.5,1.5s0.6,1.5,1.5,1.5"/>
<path class="st0" d="M611.7,91.2c-0.6,0.4-1.1,1.2-1.1,1.9s0.4,1.5,1.1,1.9"/>
<line class="st0" x1="567.5" y1="274.2" x2="567.5" y2="130.1"/>
<line class="st0" x1="618.3" y1="274.2" x2="618.3" y2="130.1"/>
<line class="st0" x1="578" y1="228.7" x2="578" y2="175.7"/>
<line class="st0" x1="578" y1="175.7" x2="609.9" y2="175.7"/>
<line class="st0" x1="609.9" y1="175.7" x2="609.9" y2="228.7"/>
<line class="st0" x1="609.9" y1="228.7" x2="578" y2="228.7"/>
<line class="st0" x1="575.9" y1="230.8" x2="575.9" y2="173.6"/>
<line class="st0" x1="575.9" y1="173.6" x2="612" y2="173.6"/>
<line class="st0" x1="612" y1="173.6" x2="612" y2="230.8"/>
<line class="st0" x1="612" y1="230.8" x2="575.9" y2="230.8"/>
<path class="st0" d="M615.7,204.9c1.5,0,2.6-1.2,2.6-2.6c0-1.5-1.2-2.6-2.6-2.6"/>
<line class="st0" x1="611.2" y1="199.9" x2="615.7" y2="199.6"/>
<path class="st0" d="M611.2,199.9c-0.3,0-0.7,0.1-1.1,0.3"/>
<line class="st0" x1="604.6" y1="201" x2="610.2" y2="200.3"/>
<path class="st0" d="M604.6,201c-0.6,0.1-1.1,0.5-1.1,1.2c0,0.6,0.4,1.1,1.1,1.2"/>
<line class="st0" x1="610.2" y1="204" x2="604.6" y2="203.4"/>
<path class="st0" d="M610.2,204c0.3,0.2,0.6,0.3,1.1,0.3"/>
<line class="st0" x1="615.7" y1="204.9" x2="611.2" y2="204.4"/>
<line class="st0" x1="611.9" y1="200.7" x2="611.4" y2="200.7"/>
<line class="st0" x1="611.4" y1="203.7" x2="611.9" y2="203.7"/>
<path class="st0" d="M611.4,200.7c-0.8,0-1.5,0.6-1.5,1.5c0,0.8,0.6,1.5,1.5,1.5"/>
<path class="st0" d="M610.2,200.3c-0.6,0.4-1.1,1.2-1.1,1.9s0.4,1.5,1.1,1.9"/>
<line class="st1" x1="821.6" y1="881.2" x2="821.6" y2="291.3"/>
<line class="st1" x1="864" y1="246.7" x2="864" y2="921.3"/>
<line class="st1" x1="304.7" y1="921.3" x2="304.7" y2="730.7"/>
<line class="st10" x1="620.5" y1="689.4" x2="620.5" y2="731.8"/>
<line class="st11" x1="620.7" y1="731.8" x2="662.8" y2="731.8"/>
<line class="st10" x1="662.8" y1="731.8" x2="662.8" y2="689.4"/>
<line class="st1" x1="864" y1="921.3" x2="758.1" y2="921.3"/>
<line class="st1" x1="580.1" y1="881.2" x2="662.8" y2="881.2"/>
<line class="st1" x1="758.1" y1="881.2" x2="821.6" y2="881.2"/>
<line class="st1" x1="758.1" y1="881.2" x2="758.1" y2="921.3"/>
<line class="st1" x1="662.8" y1="881.2" x2="662.8" y2="921.1"/>
<g>
	<line class="st12" x1="758.1" y1="916" x2="756" y2="916"/>
	<line class="st12" x1="662.8" y1="916" x2="664.9" y2="916"/>
	<line class="st6" x1="662.8" y1="899.2" x2="758" y2="899.2"/>
	<polyline class="st7" points="750.2,913.4 750.2,918.7 752.8,918.7 752.8,921.3 668,921.3 668,918.7 670.7,918.7 670.7,913.4 
		750.2,913.4 	"/>
	<polyline class="st7" points="665.4,913.4 670.7,913.4 670.7,918.7 665.4,918.7 665.4,913.4 	"/>
	<polyline class="st7" points="755.4,918.7 750.2,918.7 750.2,913.4 755.4,913.4 755.4,918.7 	"/>
	<polyline class="st7" points="750.2,918.7 670.7,918.7 670.7,913.4 750.2,913.4 750.2,918.7 	"/>
	<line class="st6" x1="662.8" y1="916" x2="665.4" y2="916"/>
	<line class="st6" x1="665.4" y1="916" x2="665.4" y2="918.7"/>
	<line class="st6" x1="665.4" y1="918.7" x2="668" y2="918.7"/>
	<line class="st6" x1="668" y1="918.7" x2="668" y2="921.3"/>
	<line class="st6" x1="668" y1="921.3" x2="662.8" y2="921.3"/>
	<line class="st6" x1="758.1" y1="921.3" x2="752.8" y2="921.3"/>
	<line class="st6" x1="752.8" y1="921.3" x2="752.8" y2="918.7"/>
	<line class="st6" x1="752.8" y1="918.7" x2="755.4" y2="918.7"/>
	<line class="st6" x1="755.4" y1="918.7" x2="755.4" y2="916"/>
	<line class="st6" x1="755.4" y1="916" x2="758.1" y2="916"/>
	<line class="st6" x1="752.8" y1="921.3" x2="668" y2="921.3"/>
	<line class="st6" x1="670.7" y1="913.5" x2="670.7" y2="918.7"/>
	<line class="st6" x1="670.7" y1="918.7" x2="665.4" y2="918.7"/>
	<line class="st6" x1="665.4" y1="918.7" x2="665.4" y2="913.4"/>
	<line class="st6" x1="755.4" y1="918.7" x2="750.2" y2="918.7"/>
	<line class="st6" x1="750.2" y1="918.7" x2="750.2" y2="913.4"/>
	<line class="st6" x1="750.2" y1="913.4" x2="755.4" y2="913.4"/>
	<line class="st6" x1="755.4" y1="913.4" x2="755.4" y2="918.7"/>
	<line class="st6" x1="670.7" y1="916" x2="750.2" y2="916"/>
</g>
<line class="st1" x1="344.6" y1="881.2" x2="344.6" y2="690.6"/>
<polyline class="st9" points="658.6,498.2 628.8,498.2 628.8,511.5 658.6,511.5 658.6,498.2 "/>
<polyline class="st9" points="658.6,516.8 628.8,516.8 628.8,530.6 658.6,530.6 658.6,516.8 "/>
<line class="st1" x1="662.8" y1="246.7" x2="662.8" y2="12.7"/>
<line class="st1" x1="16.7" y1="12.5" x2="662.8" y2="12.5"/>
<line class="st1" x1="794.1" y1="291.3" x2="794.1" y2="247"/>
<line class="st1" x1="59" y1="53.7" x2="622.6" y2="53.7"/>
<line class="st1" x1="623.8" y1="489.3" x2="623.8" y2="535.8"/>
<text transform="matrix(1 0 0 1 436.47 681.1295)" class="st13 st14" style="text-decoration: underline;">21,10</text>
<text transform="matrix(1 0 0 1 149.9253 380.7576)" class="st13 st14" style="text-decoration: underline;">15,42</text>
<text transform="matrix(1 0 0 1 710.7314 380.7579)" class="st13 st14" style="text-decoration: underline;">3,25</text>
<text transform="matrix(1 0 0 1 445.2908 188.8783)" class="st13 st14" style="text-decoration: underline;">5,39</text>
<line class="st15" x1="620.6" y1="689.2" x2="662.8" y2="689.2"/>
<line class="st1" x1="344.6" y1="881.2" x2="388.8" y2="881.2"/>
<g>
	<line class="st12" x1="579.7" y1="916" x2="577.6" y2="916"/>
	<line class="st12" x1="484.4" y1="916" x2="486.5" y2="916"/>
	<line class="st6" x1="484.4" y1="899.2" x2="579.6" y2="899.2"/>
	<polyline class="st7" points="571.8,913.4 571.8,918.7 574.4,918.7 574.4,921.3 489.6,921.3 489.6,918.7 492.3,918.7 492.3,913.4 
		571.8,913.4 	"/>
	<polyline class="st7" points="487,913.4 492.3,913.4 492.3,918.7 487,918.7 487,913.4 	"/>
	<polyline class="st7" points="577,918.7 571.8,918.7 571.8,913.4 577,913.4 577,918.7 	"/>
	<polyline class="st7" points="571.8,918.7 492.3,918.7 492.3,913.4 571.8,913.4 571.8,918.7 	"/>
	<line class="st6" x1="484.4" y1="916" x2="487" y2="916"/>
	<line class="st6" x1="487" y1="916" x2="487" y2="918.7"/>
	<line class="st6" x1="487" y1="918.7" x2="489.6" y2="918.7"/>
	<line class="st6" x1="489.6" y1="918.7" x2="489.6" y2="921.3"/>
	<line class="st6" x1="489.6" y1="921.3" x2="484.4" y2="921.3"/>
	<line class="st6" x1="579.7" y1="921.3" x2="574.4" y2="921.3"/>
	<line class="st6" x1="574.4" y1="921.3" x2="574.4" y2="918.7"/>
	<line class="st6" x1="574.4" y1="918.7" x2="577" y2="918.7"/>
	<line class="st6" x1="577" y1="918.7" x2="577" y2="916"/>
	<line class="st6" x1="577" y1="916" x2="579.7" y2="916"/>
	<line class="st6" x1="574.4" y1="921.3" x2="489.6" y2="921.3"/>
	<line class="st6" x1="492.3" y1="913.5" x2="492.3" y2="918.7"/>
	<line class="st6" x1="492.3" y1="918.7" x2="487" y2="918.7"/>
	<line class="st6" x1="487" y1="918.7" x2="487" y2="913.4"/>
	<line class="st6" x1="577" y1="918.7" x2="571.8" y2="918.7"/>
	<line class="st6" x1="571.8" y1="918.7" x2="571.8" y2="913.4"/>
	<line class="st6" x1="571.8" y1="913.4" x2="577" y2="913.4"/>
	<line class="st6" x1="577" y1="913.4" x2="577" y2="918.7"/>
	<line class="st6" x1="492.3" y1="916" x2="571.8" y2="916"/>
</g>
<g>
	<line class="st12" x1="484.5" y1="916" x2="482.4" y2="916"/>
	<line class="st12" x1="389.2" y1="916" x2="391.3" y2="916"/>
	<line class="st6" x1="389.2" y1="899.2" x2="484.4" y2="899.2"/>
	<polyline class="st7" points="476.6,913.4 476.6,918.7 479.2,918.7 479.2,921.3 394.4,921.3 394.4,918.7 397.1,918.7 397.1,913.4 
		476.6,913.4 	"/>
	<polyline class="st7" points="391.8,913.4 397.1,913.4 397.1,918.7 391.8,918.7 391.8,913.4 	"/>
	<polyline class="st7" points="481.8,918.7 476.6,918.7 476.6,913.4 481.8,913.4 481.8,918.7 	"/>
	<polyline class="st7" points="476.6,918.7 397.1,918.7 397.1,913.4 476.6,913.4 476.6,918.7 	"/>
	<line class="st6" x1="389.2" y1="916" x2="391.8" y2="916"/>
	<line class="st6" x1="391.8" y1="916" x2="391.8" y2="918.7"/>
	<line class="st6" x1="391.8" y1="918.7" x2="394.4" y2="918.7"/>
	<line class="st6" x1="394.4" y1="918.7" x2="394.4" y2="921.3"/>
	<line class="st6" x1="394.4" y1="921.3" x2="389.2" y2="921.3"/>
	<line class="st6" x1="484.5" y1="921.3" x2="479.2" y2="921.3"/>
	<line class="st6" x1="479.2" y1="921.3" x2="479.2" y2="918.7"/>
	<line class="st6" x1="479.2" y1="918.7" x2="481.8" y2="918.7"/>
	<line class="st6" x1="481.8" y1="918.7" x2="481.8" y2="916"/>
	<line class="st6" x1="481.8" y1="916" x2="484.5" y2="916"/>
	<line class="st6" x1="479.2" y1="921.3" x2="394.4" y2="921.3"/>
	<line class="st6" x1="397.1" y1="913.5" x2="397.1" y2="918.7"/>
	<line class="st6" x1="397.1" y1="918.7" x2="391.8" y2="918.7"/>
	<line class="st6" x1="391.8" y1="918.7" x2="391.8" y2="913.4"/>
	<line class="st6" x1="481.8" y1="918.7" x2="476.6" y2="918.7"/>
	<line class="st6" x1="476.6" y1="918.7" x2="476.6" y2="913.4"/>
	<line class="st6" x1="476.6" y1="913.4" x2="481.8" y2="913.4"/>
	<line class="st6" x1="481.8" y1="913.4" x2="481.8" y2="918.7"/>
	<line class="st6" x1="397.1" y1="916" x2="476.6" y2="916"/>
</g>
<line class="st1" x1="388.9" y1="881.2" x2="388.9" y2="921"/>
<line class="st1" x1="304.7" y1="921.3" x2="388.8" y2="921.3"/>
</svg>
